<svg id="Garrix" xmlns="http://www.w3.org/2000/svg" viewBox="0 0 1008 810"><path d="M342.09,343.5c4.49-10.45,12.09-16.27,23.67-16.41s18.84,6.28,23.19,16.25c1.93-2.78,3.57-5.74,5.77-8.19,11.74-13,35.44-9.72,42.39,5.85a33.68,33.68,0,0,1,2.51,13.86q.06,34.32-.05,68.63c0,3.44-1.33,4.69-4.75,4.69H419c-3.11,0-4.43-1.35-4.43-4.49q0-28,0-56c0-2.48-.08-5-.29-7.46-.33-3.83-1.53-7.32-5.49-8.77-4.37-1.61-8.6-1.23-12.33,1.9-3.24,2.74-4.29,6.47-4.59,10.46-.27,3.44-.36,6.9-.37,10.35q0,24.48,0,49c0,3.82-1.19,5-5,5H370.88c-3.12,0-4.51-1.36-4.51-4.44,0-17.24.05-34.47,0-51.71a86.68,86.68,0,0,0-.74-12.59c-.84-5.62-4.12-8.66-8.84-9-6-.44-10.19,2-11.73,7.7a51.87,51.87,0,0,0-1.69,12.77c-.18,17.49-.07,35-.08,52.46,0,3.63-1.19,4.81-4.87,4.81H323.14c-3.71,0-4.93-1.2-4.93-4.95q0-41,0-81.9c0-2.54,0-5.08,0-7.62,0-3.38,1.27-4.66,4.59-4.69q7.41-.07,14.8,0c3.28,0,4.47,1.3,4.48,4.58Z" style="fill:#fff"/><path d="M533.38,375.62c0,5.95.1,11.9,0,17.84a22.47,22.47,0,0,0,4.76,14.78c.68.88,1.34,1.79,2,2.71,1.51,2.25,1.28,3.8-.77,5.58L527.22,427c-2.7,2.35-4.4,2.52-6.88,0a85.89,85.89,0,0,1-7.5-8.77c-1.16-1.54-1.72-1.54-3-.26-5.19,5.2-11,9.29-18.48,10.61a42.09,42.09,0,0,1-16.51,0c-10.86-2.4-17.51-9.7-19.55-21.36-2.86-16.35,5.07-30.46,20.59-36.36a48.75,48.75,0,0,1,9.52-2.64c6.87-1.11,13.78-1.92,20.69-2.75,1.26-.15,1.67-.59,1.62-1.79-.08-2.28,0-4.57-.11-6.86-.36-6.94-4.42-11-11.37-11.14a18.71,18.71,0,0,0-5.28.54,12.52,12.52,0,0,0-9.47,9.74c-.71,2.95-1.86,3.81-4.85,3.52-5.1-.49-10.21-1-15.3-1.6-2.79-.32-3.94-2-3.34-4.84,2.24-10.47,8.13-18.19,17.94-22.43,13.46-5.82,27.25-6.29,40.95-.84,10.16,4,15.59,11.89,16.12,22.75.38,7.65.08,15.34.08,23ZM507.71,387c0-1.72,0-3.45,0-5.18,0-1.19-.49-1.67-1.66-1.57-2.88.26-5.79.31-8.63.78-11.32,1.84-16.67,8.33-15.91,19.07.49,7,5.25,11.48,11.71,10.83,4.94-.49,8.36-3.4,10.88-7.49C507.23,398.34,507.84,392.73,507.71,387Z" style="fill:#fff"/><path d="M297.83,374.73q0,9.76,0,19.52a21.61,21.61,0,0,0,4.25,13.27c.91,1.22,1.84,2.43,2.66,3.72,1.35,2.1,1.07,3.57-.81,5.2l-12.32,10.7c-2.54,2.2-4.37,2.38-6.65,0-2.83-2.95-5.42-6.15-8-9.35-.82-1-1.23-1.14-2.18-.19-5.37,5.37-11.35,9.73-19.07,11.05a42,42,0,0,1-16.37,0c-11.08-2.44-17.76-10-19.67-22.1-2.16-13.69,3.59-26.31,15-33a43.41,43.41,0,0,1,15.18-5.29c6.92-1.1,13.88-1.9,20.84-2.74,1.16-.14,1.63-.5,1.56-1.67a94.71,94.71,0,0,0-.62-9.56c-.79-4.72-3.94-7.67-8.7-8.38-8.71-1.3-15.59,2.87-17.13,10.59-.5,2.45-1.93,3.31-4.44,3.06q-7.74-.76-15.46-1.6c-2.83-.31-4-2-3.47-4.72,2.53-12.07,9.87-20,21.35-24a53.67,53.67,0,0,1,33-1.08c13.74,3.91,20.67,12.88,20.94,27.15.13,6.46,0,12.92,0,19.37ZM272.29,385.8c0-1.38-.05-2.75,0-4.12.05-1.15-.46-1.56-1.55-1.47-2.93.25-5.89.3-8.78.77-11.81,1.91-17.48,9.39-15.74,20.55,1.21,7.71,8.29,11.54,15.41,8.32,4.24-1.92,6.76-5.41,8.53-9.54C272.16,395.66,272.23,390.73,272.29,385.8Z" style="fill:#fff"/><path d="M749.7,345.35c1.09-2.16,1.88-3.85,2.77-5.48,5.83-10.61,15-14.12,26.63-12.36,10.69,1.62,17.78,8.86,19.72,20a79.66,79.66,0,0,1,1.23,13.17c.13,21.14.07,42.29.07,63.43,0,2.56-1.37,4-3.92,4-5.69,0-11.39,0-17.08,0-2.66,0-4-1.44-4-4.26,0-6.1,0-12.2,0-18.3,0-13.82,0-27.64-.16-41.46a26.54,26.54,0,0,0-1.13-6.58c-1-3.61-3.14-6.25-7-7.1a10.48,10.48,0,0,0-10.7,3.58c-2.8,3.18-3.84,7.14-4.42,11.19a62.46,62.46,0,0,0-.62,8.65c-.06,16.42,0,32.83,0,49.25,0,3.91-1.14,5-5.12,5h-15.1c-3.52,0-4.82-1.23-4.83-4.76,0-9.71,0-19.42,0-29.12q0-29.9,0-59.78c0-4.5,1-5.52,5.6-5.52s9,0,13.58,0c3.38,0,4.61,1.27,4.61,4.6Z" style="fill:#fff"/><path d="M712.91,379c0,13-2.81,25.24-10.78,35.83a37.71,37.71,0,0,1-63.66-4.53,61.64,61.64,0,0,1-7.22-25.93c-.8-11.56.38-22.87,5.18-33.55,5.82-12.94,15.36-21.34,29.76-23.34,17.69-2.45,33.25,6.27,40.79,22.64A68.39,68.39,0,0,1,712.91,379Zm-26.3.33-.81-.06c0-3.15.33-6.34-.07-9.43A125.87,125.87,0,0,0,682.87,354c-1.15-4.35-4.37-7-9-7.52-5.13-.59-9.42.94-11.8,5.67a34.41,34.41,0,0,0-3.14,9.46c-1.54,9-1.22,18-.58,27.05.41,5.69,1.2,11.35,4.15,16.41,4.3,7.34,13.95,7.71,18.64.61a19.27,19.27,0,0,0,3-7.07C685.24,392.2,685.83,385.74,686.61,379.3Z" style="fill:#fff"/><path d="M454.45,501.73a226.85,226.85,0,0,1-102.34-24.2,223.75,223.75,0,0,1-48.62-33.15c-2.38-2.12-2.95-3.67-1.89-5.15s2.76-1.44,5.48.13A301.5,301.5,0,0,0,412,475.69a293.08,293.08,0,0,0,50.89,3.54,301.91,301.91,0,0,0,109.95-23,23.44,23.44,0,0,1,3-1.12,5.08,5.08,0,0,1,6,2.44,4.52,4.52,0,0,1-1.9,5.72c-5.17,3.5-10.29,7.13-15.71,10.22-23.92,13.65-49.74,21.84-76.92,25.68-10.85,1.54-21.82,2.14-32.74,3.16Z" style="fill:#fff"/><path d="M587.88,328.86h28.67c3.3,0,4.43,1.13,4.43,4.37,0,2.44-.17,4.9,0,7.32.33,3.58-.95,6.51-2.95,9.34-6.49,9.17-12.9,18.39-19.34,27.59L587.21,394a9.54,9.54,0,0,0-.64,1.18,7.55,7.55,0,0,0,1.4.28c10.8.14,21.25,1.78,30.91,7,2,1.08,3.65,2.53,3.73,4.85.18,5.13.26,10.27,0,15.38-.11,2.62-2.63,3.62-5.12,2.37a67.2,67.2,0,0,0-30.73-7.17A65.9,65.9,0,0,0,557,424.91c-3.26,1.64-5.48.27-5.45-3.43,0-5.54,0-11.08.34-16.6a12.54,12.54,0,0,1,2.35-5.83c11.12-16.16,22.36-32.24,33.56-48.35a10.16,10.16,0,0,0,.66-1.32,8.66,8.66,0,0,0-1.57-.29c-9,0-17.9,0-26.84,0-4.19,0-5.15-1-5.15-5.09,0-3.76,0-7.52,0-11.28,0-2.59,1.26-3.83,3.86-3.83Q573.31,328.84,587.88,328.86Z" style="fill:#fff"/><path d="M578.05,443.93,555.55,446c-.2,0-.43.14-.6.09-1.14-.33-2.27-.7-3.4-1.05.55-1.15.78-2.72,1.68-3.39,5.9-4.4,12.68-6.83,19.85-8.2,10.15-1.93,20.3-2.16,30.38.53,4.69,1.25,6,2.75,5.81,7.55-.68,17-6.23,32.09-18.15,44.54a11.67,11.67,0,0,1-3.07,2.47,3.39,3.39,0,0,1-2.89.13c-.56-.42-.7-2-.41-2.81,2-5.76,4.47-11.37,6.2-17.2A109.53,109.53,0,0,0,594.52,452c.56-4.19-1.07-6-5.28-6.79C585.62,444.54,581.9,444.36,578.05,443.93Z" style="fill:#fff"/></svg>