<svg xmlns="http://www.w3.org/2000/svg" viewBox="0 0 1008 810"><g id="AWS"><path d="M425.4,374.68a38.39,38.39,0,0,0,1.39,11.25,67.62,67.62,0,0,0,4,9.1,5.42,5.42,0,0,1,.89,2.9c0,1.27-.76,2.53-2.4,3.8l-8,5.3a6.07,6.07,0,0,1-3.29,1.14,5.8,5.8,0,0,1-3.79-1.77,38.64,38.64,0,0,1-4.55-5.94c-1.26-2.15-2.53-4.55-3.92-7.45Q391,410.44,368.66,410.44c-10.61,0-19.08-3-25.27-9.09S334,387.19,334,377.08c0-10.74,3.79-19.46,11.49-26s18-9.86,31-9.86a98.84,98.84,0,0,1,13.39,1c4.68.63,9.48,1.64,14.53,2.78v-9.23c0-9.6-2-16.3-5.94-20.22s-10.86-5.81-20.59-5.81a57.29,57.29,0,0,0-13.65,1.64,100.67,100.67,0,0,0-13.65,4.3,36.61,36.61,0,0,1-4.42,1.64,7.93,7.93,0,0,1-2,.38c-1.76,0-2.65-1.26-2.65-3.92v-6.19c0-2,.25-3.54.89-4.42a9.4,9.4,0,0,1,3.53-2.66,72.73,72.73,0,0,1,15.93-5.68,76.26,76.26,0,0,1,19.71-2.4c15,0,26,3.41,33.11,10.23s10.49,17.19,10.49,31.09v40.94Zm-51.31,19.21a41.15,41.15,0,0,0,13-2.27,28.27,28.27,0,0,0,12-8.09,20.11,20.11,0,0,0,4.29-8.09,45.24,45.24,0,0,0,1.27-11v-5.31A105.79,105.79,0,0,0,393.05,357a96.23,96.23,0,0,0-11.88-.76c-8.47,0-14.66,1.65-18.83,5.06s-6.19,8.21-6.19,14.53c0,5.94,1.52,10.36,4.68,13.39S368.28,393.89,374.09,393.89Zm101.48,13.65c-2.28,0-3.79-.38-4.8-1.27s-1.9-2.52-2.66-4.92l-29.69-97.69a22,22,0,0,1-1.14-5.05c0-2,1-3.16,3-3.16H452.7c2.4,0,4,.38,4.92,1.26s1.77,2.53,2.53,4.93l21.23,83.66,19.72-83.66c.63-2.53,1.39-4.17,2.4-4.93a8.67,8.67,0,0,1,5.05-1.26h10.11c2.4,0,4,.38,5.06,1.26s1.89,2.53,2.4,4.93l20,84.67,21.86-84.67c.76-2.53,1.65-4.17,2.53-4.93a8.25,8.25,0,0,1,4.93-1.26h11.75a2.81,2.81,0,0,1,3.16,3.16,12.2,12.2,0,0,1-.25,2,18,18,0,0,1-.89,3.16l-30.45,97.68q-1.14,3.79-2.65,4.93a8.12,8.12,0,0,1-4.81,1.26H540.4c-2.4,0-4-.37-5.06-1.26a9,9,0,0,1-2.4-5l-19.59-81.51-19.46,81.38c-.63,2.53-1.39,4.17-2.4,5s-2.78,1.27-5.05,1.27ZM638,411a84,84,0,0,1-19.46-2.27c-6.32-1.52-11.24-3.16-14.53-5.06a9.16,9.16,0,0,1-3.92-3.54,9,9,0,0,1-.76-3.54V390.1c0-2.65,1-3.92,2.91-3.92a7.27,7.27,0,0,1,2.28.38c.75.25,1.89.76,3.15,1.26a68.53,68.53,0,0,0,13.91,4.43,75.87,75.87,0,0,0,15,1.51c8,0,14.16-1.39,18.45-4.17a13.59,13.59,0,0,0,6.57-12,12.29,12.29,0,0,0-3.41-8.85c-2.27-2.4-6.57-4.55-12.76-6.57l-18.32-5.68c-9.23-2.91-16.05-7.21-20.22-12.89a30.13,30.13,0,0,1-6.32-18.33,28.19,28.19,0,0,1,3.41-14,32.48,32.48,0,0,1,9.1-10.36,40.33,40.33,0,0,1,13.14-6.57,55,55,0,0,1,15.92-2.15,63.34,63.34,0,0,1,8.47.51c2.91.38,5.56.88,8.21,1.39s4.93,1.26,7.21,2a27.47,27.47,0,0,1,5.3,2.28,11,11,0,0,1,3.8,3.15,6.9,6.9,0,0,1,1.13,4.17v5.94c0,2.66-1,4.05-2.9,4.05a13.23,13.23,0,0,1-4.81-1.52,57.88,57.88,0,0,0-24.26-4.93c-7.2,0-12.89,1.14-16.81,3.54s-5.93,6.07-5.93,11.25a11.91,11.91,0,0,0,3.79,9c2.52,2.4,7.2,4.8,13.9,6.95l17.94,5.69c9.1,2.9,15.67,6.95,19.59,12.13a28.57,28.57,0,0,1,5.81,17.69,32.62,32.62,0,0,1-3.28,14.66,34,34,0,0,1-9.23,11.12,40.84,40.84,0,0,1-14,7.08A60,60,0,0,1,638,411Z" style="fill:#fff"/><path d="M661.84,472.37c-41.58,30.7-102,47-153.92,47-72.79,0-138.38-26.92-187.91-71.66-3.92-3.53-.38-8.34,4.29-5.56,53.59,31.09,119.68,49.92,188,49.92a375.1,375.1,0,0,0,143.43-29.32C662.72,459.6,668.66,467.31,661.84,472.37Z" style="fill:#fff;fill-rule:evenodd"/><path d="M679.15,452.65c-5.31-6.82-35.13-3.28-48.65-1.64-4,.5-4.68-3-1-5.69,23.75-16.68,62.8-11.88,67.35-6.32s-1.26,44.74-23.5,63.44c-3.42,2.91-6.7,1.39-5.18-2.4C673.21,487.53,684.46,459.35,679.15,452.65Z" style="fill:#fff;fill-rule:evenodd"/></g></svg>