<svg id="Garrix" xmlns="http://www.w3.org/2000/svg" viewBox="0 0 1008 810"><path d="M311.5,447.92c-1.26,3.23-2.59,6.62-4.22,10.81L298.67,449l-7,8.08v-14l-10.36-10.55L274,439.28v-13.2l-10.53-10.84-7.52,7.11V407.16c-2.42-2.28-4.93-4.53-7.31-6.89q-33.33-33.06-66.58-66.2a11.11,11.11,0,0,1-2.61-4.33c-2-6.47-3.85-13-5.77-19.56Z" style="fill:#fff"/><path d="M551.33,390.48h14.53c7.59,11.38,15.35,23,23.38,35l23.43-35.11h14.45V436h-12V407.72l-.83-.35-19,28.58H583.15l-19-28.54-.59.18V436H551.33Z" style="fill:#fff"/><path d="M483.35,496.25c-6.68-15.1-13.3-30.05-20.06-45.31h13.36L490,483l13.32-32h12.33L529,483l13.51-32h13.26c-6.78,15.24-13.47,30.26-20.19,45.34H523.1L509.47,464c-4.71,11.23-9.08,21.68-13.52,32.28Z" style="fill:#fff"/><path d="M651.71,399.51v9.22h44v8.9H651.84v9.15h46.6v9.29H639V390.53h59.29v9Z" style="fill:#fff"/><path d="M776.78,493.06v-9.69c4.72,1,9.19,2.28,13.75,3a106.41,106.41,0,0,0,31.82.38c2.91-.42,6.11-.84,7.5-4.2-.85-3.07-3.43-3.38-5.71-3.59-6.6-.59-13.25-.63-19.82-1.41a161.79,161.79,0,0,1-19.81-3.43,10.61,10.61,0,0,1-8.08-8.56,9.74,9.74,0,0,1,5.43-11.18A49.24,49.24,0,0,1,796,450a106,106,0,0,1,40.11,2.45,8.63,8.63,0,0,1,1.3.58v9c-6-1-11.82-2.56-17.72-2.87-8.21-.43-16.47-.09-24.7.26-2.28.09-5.79.3-5.72,3.53s3.55,3.21,5.86,3.43c7.14.69,14.35.71,21.45,1.59a94.27,94.27,0,0,1,18.4,3.73c6.39,2.15,8.65,7.41,7.06,13.53a11,11,0,0,1-7.56,7.92,59.92,59.92,0,0,1-13.26,3.08c-13.45,1.15-26.92,1.24-40.23-1.74-1.06-.23-2.11-.52-3.15-.82A7.27,7.27,0,0,1,776.78,493.06Z" style="fill:#fff"/><path d="M615.59,366.46v9.18H556.06V330.15h59.52v8.94H569v9.22h43.69v8.94H568.91v9.21Z" style="fill:#fff"/><path d="M464.8,431.17c-17.36,7.16-35,8.36-52.6,1.32-11.59-4.62-16.44-15.67-12.45-26.52,2.76-7.5,8.74-11.6,16-13.71,16.05-4.7,32-4.11,47.5,2.4.59.25,1.13.61,1.73.94v9.55c-6.1-1.85-12.1-4.07-18.28-5.44a45.56,45.56,0,0,0-23.85,1,22.12,22.12,0,0,0-7.9,4.3,11.38,11.38,0,0,0,2.95,18.81c4.48,2.12,9.68,3,14.66,3.73A44.69,44.69,0,0,0,452,425.65v-8.46H423.32v-7.56H464.8Z" style="fill:#fff"/><path d="M291.37,497.07H276.09l-12-13.19-12,13.07H235.31l20.54-20.27-9.53-9.79L230,484.08l-4.41-11.24,13.23-12.69L228.13,449.5l-7.83,9.55-4.56-11.76L222.3,442c-13.78-7.82-15-21.63-19.62-33.57Z" style="fill:#fff"/><path d="M297.33,483.9l-16.41-16.24c-2.15,2-4.31,4.1-6.93,6.61v-13l-10.88-11.25-6.31,7.37-.91-.6V443.6l-10.36-10.91-6.19,7.59-1.11-.76V427c-14.35-14.8-27.62-28.43-40.79-42.16a14.78,14.78,0,0,1-3.23-5.43c-2-6.17-3.75-12.44-5.38-18L301.51,473.12Z" style="fill:#fff"/><path d="M699,451.19a3.14,3.14,0,0,1,.82-.32c14.86.22,29.74.22,44.59.79a29.72,29.72,0,0,1,16,5.77c11.3,8,11.64,24.3.11,32-4.52,3-10.22,5.52-15.56,5.92-15.22,1.14-30.52,1.08-46,1.5Zm12.77,35.49c9.77,0,19.2.19,28.61-.12,3-.1,6.13-1.29,9-2.44a10,10,0,0,0,6.15-7.48c1.71-7.61-2.12-14.08-10.75-15.09-10.71-1.25-21.6-.95-32.41-1.31-.17,0-.35.23-.62.42Z" style="fill:#fff"/><path d="M638.81,481.61v14.57H626.42V450.94a6.78,6.78,0,0,1,1.45-.29c13.91.06,27.82-.09,41.72.37a35.6,35.6,0,0,1,12.15,3.17c5.16,2.18,7.68,6.62,7.55,12.25s-3,9.45-7.91,11.75c-2.34,1.09-4.85,1.79-7.86,2.87l17.11,15H674.86l-16.1-14.44Zm.23-9.55c8.87,0,17.41,0,26,0a32.4,32.4,0,0,0,6.14-.56c3.82-.77,5.4-2.5,5.36-5.44s-1.76-5.16-5.48-5.27c-10.58-.3-21.16-.1-32-.1Z" style="fill:#fff"/><path d="M478.36,330.3h12.39v17.56h40.7V330.2h12.7v45.42H531.74V357.83H490.88v17.73H478.36Z" style="fill:#fff"/><path d="M429.65,450.77h13.44l29.36,45.5H458.77l-5.66-8.9H418.32l-6,8.93h-13.6Zm17.6,27.12L436.2,460.26l-11.66,17.63Z" style="fill:#fff"/><path d="M619.64,496.37H606l-5.53-8.93H565.56c-2,2.91-4,5.86-6,8.88H545.82l30.93-45.52h13.47Zm-47.91-18.62h22.55c-3.72-6-7.18-11.55-10.86-17.47Z" style="fill:#fff"/><path d="M470.3,436l31-45.57h13.27l29.33,45.46H530.18l-5.56-8.8H489.9l-6,8.91Zm37.43-36c-3.94,5.95-7.67,11.56-11.6,17.47h22.55Z" style="fill:#fff"/><path d="M273.88,404.19v-14.3l79.53-79.36c-2,6.88-4.05,13.94-6.21,21a6.11,6.11,0,0,1-1.72,2.3Q310.84,368,276.17,402.26C275.59,402.83,274.92,403.31,273.88,404.19Z" style="fill:#fff"/><path d="M440.06,339v36.48H427.4V339.36H398.82v-9.14h69.92V339Z" style="fill:#fff"/><path d="M291.48,421.74V406.89l47.33-47.1c-.8,2.84-1.82,5.58-2.32,8.41-1.69,9.57-6.55,16.94-13.85,23.41-9.83,8.7-18.89,18.27-28.28,27.46C293.6,419.81,292.8,420.52,291.48,421.74Z" style="fill:#fff"/><path d="M324.83,408.05c-2.55,7.62-4.6,15.17-7.68,22.27-1.39,3.21-4.86,5.51-8,8.9V423.43Z" style="fill:#fff"/></svg>