<svg id="Garrix" xmlns="http://www.w3.org/2000/svg" viewBox="0 0 1008 810"><path d="M244.79,413.07V391.42H732.55v21.65Z" style="fill:#fff"/><path d="M267.13,375.58H244.88V289.87h23.38l22.53,31.26,22.41-30.38h23.31v84.79H314.37V326.29l-1.68-.43L291.3,354.27c-9.29-9.33-14.65-19.95-23.85-28.51-.11,5.34-.26,10.68-.31,16s0,10.78,0,16.17Z" style="fill:#fff"/><path d="M594.27,517.07H568.49c-3.83-9.75-7.8-19.88-11.74-29.94h-14.4v30H518v-87.3c1.88-.19,3.73-.54,5.58-.55,12-.05,24-.3,36,.11a56.06,56.06,0,0,1,15.78,2.82c11,3.68,17.45,11.79,18.69,23.22,1.13,10.4-2.46,19.24-11.47,25.34-.8.54-1.52,1.19-3.1,2.42C584.19,494,589,505,594.27,517.07Zm-51.14-68.73v20.49c6.23,0,11.36.27,16.44-.08,5.92-.4,8.51-3.24,8.79-8.71.34-6.38-1.44-9.4-7.63-10.5C555.3,448.58,549.68,448.74,543.13,448.34Z" style="fill:#fff"/><path d="M457.06,517.31H432.4V429.2c6.61,0,13.4-.18,20.17,0,11,.37,22.18-.27,32.85,1.77,22.47,4.31,25.85,24.09,21,37.27-2.07,5.64-7.07,10.21-11.67,16.55,1.67,4,4,9.58,6.35,15.13s4.89,11,7.32,16.5c-5.26,2.64-14.4,3.09-25.65,1.33l-11.46-30.55H457.06Zm.17-48.82c2.12.22,3.55.47,5,.48,3.66,0,7.34.14,11-.11,6.28-.43,9.73-3.84,10-9.48A9.75,9.75,0,0,0,474,448.91c-5.45-.58-11-.13-16.78-.13Z" style="fill:#fff"/><path d="M656.79,375.25V290.66H679.1l29.59,44.59,1.57-.29V290.54h22.36v84.62H710.38l-29.85-44.53-1.44.45v44.17Z" style="fill:#fff"/><path d="M326.12,440.45l-12.57,15c-2.72-1.29-4.86-2.33-7-3.32-6.84-3.11-13.77-5-21.28-2.33-6.66,2.35-11.38,6.7-13.69,13.34a33.37,33.37,0,0,0,.71,23.69c3.66,9.42,16.66,15.64,31.94,8.62V482.72H287.92v-15H326.5a31.81,31.81,0,0,1,.72,4.79c.07,9.79-.12,19.59.1,29.38.11,4.7-1.57,7.92-5.69,10.15-17.46,9.47-35.43,11.23-53.47,2.37-16.05-7.89-23.38-21.86-23.72-39.32-.35-18,6.62-32.67,22.88-41.38,17.36-9.3,34.88-7.7,51.91,1.51C321.3,436.37,323.05,438.11,326.12,440.45Z" style="fill:#fff"/><path d="M713.65,518,686.2,491l-29.3,28.71-17-17.86,28.18-28.91-28-28.46,17.41-17.58,28.7,28,28-27.67,17.53,17.55L704.22,473l27,27.52Z" style="fill:#fff"/><path d="M500.7,342.45c4.54,10.54,9.05,21,13.91,32.26-8.43,2.09-15.85,1-24,1-3.87-9.87-7.67-19.58-11.59-29.56H465.48V375.4H442.19V291.12h14.59c8.81,0,17.64-.27,26.43.12a45.71,45.71,0,0,1,13.59,2.54c19.78,7.27,24,31.34,8.09,45.11C503.62,340,502.32,341.07,500.7,342.45Zm-34.93-32.51v19.5c6.07-.26,11.67,0,17.09-.88s7.81-4.53,7.55-9.9-3.08-8.26-8.85-8.65C476.51,309.67,471.43,309.94,465.77,309.94Z" style="fill:#fff"/><path d="M391.79,429.55c10.08,29,20.06,57.67,30.41,87.45H396.25c-1.51-3.6-3.16-7.56-4.91-11.75H364.61l-5.13,11.91H333.84c9.6-30,20.23-58.68,30.31-87.61Zm-13.22,31.56-1.55,0c-2.35,8-4.69,16.08-7.14,24.49H386C383.32,476.84,381,469,378.57,461.11Z" style="fill:#fff"/><path d="M371.38,375.37H348c0-1.89-.44-3.67.06-5.11q13.63-39.12,27.49-78.14a11.71,11.71,0,0,1,1.55-2.21h25.55c9.77,27.82,19.59,55.82,29.72,84.69-8.83,2.28-16.67,1.22-25,.89l-4.52-12.18H376.3C374.71,367.2,373.17,371,371.38,375.37Zm18.87-54.68-1.88.22c-2.27,7.77-4.55,15.54-7,23.91h16.07C394.9,336.32,392.58,328.5,390.25,320.69Z" style="fill:#fff"/><path d="M608.87,320.19v24.24H578.72V375a85.34,85.34,0,0,1-24-.1v-30H524.21V320.53h30.25V289.91h23.66v30.28Z" style="fill:#fff"/><path d="M605.91,517.25V429.73h23.8v87.52Z" style="fill:#fff"/><path d="M618.94,289.79h23.57V375.3H618.94Z" style="fill:#fff"/></svg>