<svg xmlns="http://www.w3.org/2000/svg" viewBox="0 0 1008 810"><defs><style>.cls-1{fill:#fff;}</style></defs><g id="Layer_12" data-name="Layer 12"><path class="cls-1" d="M315,450.38c0-11.36.9-34.81.9-37.16.18-.89-.54-1.08-1.8-1.08-11.36,0-57.18-.18-57.18-.18a5.82,5.82,0,0,0-3.42,1.26L244.08,421c-2.89,2.35-.36,2.53,2.52,2.35,12.81-.91,34.81-1.45,56.1-1.45v27.6a146.33,146.33,0,0,1-.91,18.22c-10.1,5.77-21.1,10.1-36.79,10.1-32.83,0-51.76-25.43-51.76-62.41,0-37.69,20.2-62.59,53.2-62.59,26.88,0,42.21,12.81,45.09,40.95.18,1.62,1.81,1.44,1.63,0L311,358.93c-9.74-4.32-29.76-7.93-44.91-7.93C228.93,351,197,377.7,197,415.39c0,37,29.58,64.21,68.36,64.21,16.59,0,29.94-6.67,37.34-6.67,2.7,0,8.83,3.06,11.72,5.41.9.72,1.62.9,1.44-.18-.72-7.4-.9-19.84-.9-27.78"/><path class="cls-1" d="M724,429.82l-1.08,9.56c-2.35,18.4-17.14,36.43-38.06,36.43-5.59,0-28.86-.54-34.09-.54.72-3.06,1.44-12.62,1.44-26.51V414.13h15c22.55,0,27.42,8.47,27.42,20.92v2.71a.92.92,0,1,0,1.81,0c0-2.71-.91-22.19-.91-24.72,0-2.7.91-20.38.91-25.6,0-1.45-1.81-1.45-1.81,0v3.78c0,12.45-4.87,20.74-27.42,20.74h-15V399.52c0-44.37-1.44-44.55,6.86-44.55H682c20.57.18,34.63,11.54,38.06,31.74l.9,6.5c.37,1.08,2.17,1.26,1.81,0l-.73-6.5c-2.7-19.48-4.32-32.64-5.23-33.19-1.08-.54-5.23-.72-8.47-.72-6.5,0-61,.54-63.49.54-2.71,0-16.53-.55-21.58-.55h0c-3.94-.1-17.82-1.25-20.4-1.25-3.43,0-5.95,6.13-14.25,19.3l-36.61,57-43.47-64c-2.53-3.61-6-8.84-7.22-11.19a1.81,1.81,0,0,0-1.8-1.08c-1.23,0-6.5,1.2-24.05,1.26h-.12c-5,0-17.67.54-20.38.54-2.52,0-15.51-.54-20.56-.54-1.44,0-1.44,1.63,0,1.63h3.79c8.84,0,9.74.72,9.74,45.09v31.56c0,44.37-.9,45.09-9.74,45.09h-6.49c-11,0-14.43-3.24-29.4-35-11.72-23.63-18-29.22-33.37-29.58,19.49-3.42,38.42-13.89,38.42-29.22,0-19.12-15.15-29.58-46.17-29.58-3.06,0-19.66.54-22.18.54-2.71,0-15-.54-20-.54-1.44,0-1.44,1.63,0,1.63h3.25c8.84,0,9.74.72,9.74,45.09v24c0,8.3-.18,26.15-.54,36.07-.36,9.74-1.08,13.71-3.61,16.23a63.36,63.36,0,0,1-8.29.36c-1.45,0-1.45,1.63,0,1.63s17.13-.36,19.84-.36c2.52,0,14.61.36,19.65.36,1.45,0,1.45-1.63,0-1.63h-3.6c-8.84,0-9.74-.72-9.74-45.09V412.86H353c18,.36,23.27,2.89,36.8,34.1,6.13,14.42,11.18,22.9,15,27.23,2.89,3.25,5.23,4.33,9.2,4.33,2.7,0,6.13-.72,12.44-.72h6.51c5.34,0,19.51-.53,22-.53,2.64,0,14.65.51,19.94.53h.46c5.09,0,13.22-.53,15.85-.53s18.58.72,23.81.54a.82.82,0,1,0,0-1.63h-2.52c-8.84,0-19.12-.72-19-45.09l.19-64.93,52.75,73.58c.66,0,1-.39,1.54-1.25l42.56-66.56c5.24-7.93,7-11.72,7-4.69v63.85c0,44.37-.9,45.09-9.74,45.09h-3.61c-1.44,0-1.44,1.63,0,1.63,5,0,17.5-.54,20.2-.54,2.47,0,13.68.51,18.91.53h.45l25.9-.53s33,.54,45.63.54c12.45,0,23.27,0,24-.72,1.26-1.09,2.35-7.94,5.59-37.34L726,430c.19-1.26-1.8-1.26-2-.18M345.61,411.06v-29.4c0-26.51.36-27.23,7-27.23h7c22.54,0,31.56,9.19,31.56,27.95,0,20.38-16.59,28.5-30.48,28.5-7,0-11.73,0-15.15.18m145.54,20c-.18,42.75-5.23,44.91-13.35,45.09h-6.3c-8.84,0-9.74-.72-9.74-45.09V399.52c0-44.37.9-45.09,9.74-45.09l3.77,0h2.2c4.51,0,8.45,3.26,11.52,6.69,1.44,1.62,2.34,4.33,2.34,7.75,0,10.29-.18,41.67-.18,62.23m146.62,21.46c-1.44,22.73-3.78,23.62-14.24,23.62H621c-8.84,0-9.74-.72-9.74-45.09V399.52c0-44.37.9-45.09,9.74-45.09h2.7l.09,0,4.23,0c8.83,0,10.46.72,10.46,45.09,0,16.59.18,40.58-.73,53"/><path class="cls-1" d="M774.26,409.44c-18.58-7.94-37.16-15.33-37.16-32.65,0-13.71,8.84-24,30.84-24,33.73,0,38.78,20.28,38.42,48.06,0,2.34,1.8,2.34,1.8,0,0-28.5,1.45-39.58,1.09-43.19-.18-1.44-.72-1.62-2-2A158.63,158.63,0,0,0,767.94,351c-22.9,0-42.2,12.81-42.2,34.27,0,19.12,19.66,27.6,39,35.53,18.39,7.76,36.43,15,36.43,32.65,0,14.25-8.66,24.35-28.5,24.35-29.94,0-42-13.28-42-46.83,0-2.53-2-2.53-2,0,0,8.84.19,33.12.19,41.42,0,1.08.17,1.44,1.8,1.8,12.8,3.43,22.54,5.41,42,5.41C794.28,479.6,812,465.71,812,445c0-19.48-19-27.78-37.7-35.53"/></g></svg>