<svg xmlns="http://www.w3.org/2000/svg" viewBox="0 0 1008 810"><g id="Insomniac"><path d="M577,391.09l5.34-18.39c3-10.33,6.12-20.65,8.95-31,.68-2.5,1.78-3.15,4.22-3.1,7.77.15,15.54.05,23.71.05-1.14,7.88-2.17,15.31-3.29,22.74-4,26.51-8.07,53-12,79.54-.32,2.18-.86,3.15-3.25,3.08-5.6-.16-11.21-.05-17.13-.05,3-20.19,6-39.92,8.9-59.65l-.71-.17c-1.49,5.29-3,10.58-4.48,15.88-3.79,13.59-7.64,27.18-11.3,40.81-.65,2.43-1.61,3.37-4.13,3.18-2.85-.22-5.73-.05-8.69-.05V384.65l-.18-.06c-3,19.64-5.91,39.29-8.9,59.12h-20c5.24-35.09,10.44-70,15.66-104.94h26.67V391Z" style="fill:#fff"/><path d="M499.69,445c-4.78-.39-9.59-.51-14.32-1.21-6.62-1-9.44-4.12-8.89-10.76.78-9.29,2.17-18.54,3.51-27.78,2.56-17.54,5.12-35.08,8-52.57,1.54-9.5,5.45-13.55,14.84-14.22a171.06,171.06,0,0,1,26.2.31c7.44.61,10.3,4.53,9.55,12-.86,8.46-2.12,16.88-3.36,25.29-2.5,16.94-5.1,33.86-7.67,50.8-.14.94-.35,1.88-.55,2.82-2.21,10.5-6.42,14.18-17.18,14.81-3.35.19-6.72,0-10.08,0Zm-.48-21c.47.62,1.19,2.56,2.4,3,2.35.75,3.73-.95,4.22-3.23.18-.82.31-1.65.43-2.48q3.06-20.39,6.11-40.78,1.56-10.45,3.1-20.92c.28-1.91.21-3.73-2.19-4.17s-3.61.82-4.16,3c-.18.69-.28,1.41-.39,2.11q-2.43,16-4.84,31.9C502.37,402.51,500.88,412.67,499.21,424Z" style="fill:#fff"/><path d="M406.28,443.72H385.74q-1.44-25.32-2.86-50.5l-.8-.07c-1,6.46-2,12.91-2.93,19.37-1.46,9.71-2.86,19.43-4.39,29.12-.13.82-1.06,2.14-1.64,2.16-5.85.16-11.69.09-17.75.09,2.06-13.92,4-27.42,6-40.91,3-20.25,6.13-40.49,9-60.77.42-2.93,1.43-3.76,4.27-3.65,5.5.21,11,.06,17,.06.78,17.75,1.54,35.27,2.31,52.78l.87.07c2.68-17.49,5.35-35,8.05-52.65h19C416.7,373.85,411.5,408.7,406.28,443.72Z" style="fill:#fff"/><path d="M664.07,443.7H643.52q-1.46-25.49-2.88-50.84l-.74-.06c-1,6.3-1.95,12.6-2.89,18.9-1.48,9.95-2.89,19.91-4.46,29.85-.14.87-1.24,2.24-1.94,2.26-5.72.18-11.45.1-17.46.1,1.34-9.17,2.61-17.92,3.91-26.66,3.75-25.11,7.56-50.21,11.21-75.33.37-2.55,1.16-3.45,3.78-3.36,5.73.19,11.47.06,17.45.06.78,17.94,1.55,35.48,2.32,53l.83.05c2.68-17.56,5.36-35.12,8.07-52.86h19C674.48,373.83,669.28,408.67,664.07,443.7Z" style="fill:#fff"/><path d="M255.94,446.06c-15.66-.3-29-6.06-39.9-17.52a158.08,158.08,0,0,1-25.39-34.7,6,6,0,0,1-.15-4.85c7.65-14.38,17.08-27.55,29.23-38.44,22.72-20.36,56.52-18.37,77.2,4.1a174.33,174.33,0,0,1,24.59,33.55,5.3,5.3,0,0,1,.12,5.88,166.61,166.61,0,0,1-26.53,35.66C284.47,440.68,271.27,445.84,255.94,446.06Zm-41.82-54.88a42,42,0,0,0,42.26,42.19c22.89-.05,41.78-18.94,42-42,.2-22.86-19-42.08-42.12-42.25A42.1,42.1,0,0,0,214.12,391.18Z" style="fill:#fff"/><path d="M443.56,401.48c-1,6.59-1.86,12.73-2.76,18.87-.07.48-.22.94-.27,1.42-.26,2.32-.63,4.91,2.52,5.39,2.89.44,3.55-1.87,3.9-4.12.92-5.8,1.76-11.61,2.72-17.39.48-2.92-.74-4.84-3.13-6.26-4.22-2.52-8.37-5.16-12.66-7.57-6.63-3.74-9.41-9.45-8.49-16.82s2-14.72,3.46-22c2-10.16,5.54-13.8,15.77-14.56a172.87,172.87,0,0,1,25.84.37c6.39.48,9.28,4,8.82,10.41-.62,8.58-1.94,17.11-3,25.91H454.25c.7-5.06,1.43-10.1,2.09-15.14.24-1.86.86-4.05-1.85-4.67s-4.05,1.28-4.46,3.54a93.76,93.76,0,0,0-1.77,13.51c-.05,1.59,1.52,3.76,3,4.76,4,2.79,8.35,5.17,12.64,7.58,6.49,3.64,9.34,9.06,8.24,16.44-1.46,9.83-2.82,19.68-4.52,29.48-1.5,8.66-5.1,12.6-14,13.28a191.35,191.35,0,0,1-27.61-.25c-5.88-.39-9-3.95-8.59-9.56.83-10.36,2.39-20.67,3.77-31a2.52,2.52,0,0,1,1.87-1.57C429.74,401.43,436.43,401.48,443.56,401.48Z" style="fill:#fff"/><path d="M823.77,374.38H801.5c.67-4.85,1.33-9.45,1.92-14.05.28-2.13.94-4.61-2.33-5-3.11-.35-3.81,2-4.17,4.34-1.5,9.7-2.92,19.42-4.37,29.13-1.59,10.65-3.25,21.29-4.73,32-.32,2.27-1.75,5.52,2,6.21s4.06-2.54,4.47-5.16c1.16-7.45,2.25-14.9,3.4-22.55h22.43c-2,11.63-3.7,23.08-6.09,34.37-1.53,7.22-7.31,10.32-14.17,10.54a233.26,233.26,0,0,1-26.18-.51c-6.95-.56-9.8-4.18-9.1-11.23,1.05-10.59,2.67-21.13,4.21-31.67,2.32-15.87,4.63-31.74,7.22-47.56,1.75-10.66,6.49-14.83,17.21-15.09a215.86,215.86,0,0,1,24.4.65c6.67.59,9.47,4,9,10.61C826.08,357.72,824.76,366,823.77,374.38Z" style="fill:#fff"/><path d="M758.28,338.62c-.69,35.2-1.36,70-2,105H735.42c.43-6.72.86-13.44,1.31-20.39h-8.89c-1.26,5.45-2.67,11-3.77,16.56-.59,3-1.67,4.43-5.11,4.2-5.36-.36-10.76-.1-16.74-.1,1.6-5.75,3.07-11.1,4.56-16.45,7.92-28.46,15.89-56.9,23.7-85.39.73-2.67,1.72-3.62,4.54-3.54C742.66,338.76,750.3,338.62,758.28,338.62Zm-17.8,27.17c-3,13.46-5.92,26.5-8.89,39.77h6.8c1-13.06,1.88-25.91,2.8-38.75C741.2,366.65,741,366.47,740.48,365.79Z" style="fill:#fff"/><path d="M345.86,443.73H323.74c5.23-35.1,10.43-70,15.65-105h22.1C356.28,373.8,351.09,408.62,345.86,443.73Z" style="fill:#fff"/><path d="M689.23,338.76h22c-.82,5.79-1.57,11.4-2.41,17-4.23,28.28-8.53,56.55-12.66,84.85-.38,2.56-1.1,3.45-3.74,3.37-6.1-.19-12.2-.06-18.91-.06C678.79,408.78,684,374,689.23,338.76Z" style="fill:#fff"/><path d="M256,357.11a34.06,34.06,0,0,1,34.41,34.09,34.49,34.49,0,0,1-34.23,34.5c-18.72.18-34.36-15.42-34.43-34.31A34.14,34.14,0,0,1,256,357.11Zm-25.51,35.08c.85,14.36,12.87,25.65,26.45,24.85,14.28-.84,25.48-12.82,24.83-26.55-.69-14.36-12.78-25.49-26.88-24.73S229.73,378.63,230.53,392.19Z" style="fill:#fff"/><path d="M274.83,391.25a18.72,18.72,0,1,1-18.74-18.68A18.63,18.63,0,0,1,274.83,391.25Z" style="fill:#fff"/></g></svg>