<svg xmlns="http://www.w3.org/2000/svg" viewBox="0 0 1008 810"><g id="Intel"><path d="M624.06,404.85H524.32a90.15,90.15,0,0,0,4,9.1c6,10.53,15.61,15.29,27.39,16.16a44.79,44.79,0,0,0,36.49-13.85l24.18,18.34c-3.89,3.49-7.4,7-11.32,10.08-25.37,19.6-64.08,19.63-88.36,0-12.87-10.4-20.23-24.07-22.89-40.39a65.7,65.7,0,0,1,32.87-68.46,67.12,67.12,0,0,1,40-7.81c15,1.54,28,7.19,38.53,17.91,12.12,12.35,18.25,27.42,18.84,44.7C624.19,395.3,624.06,400,624.06,404.85Zm-32-23.5a22.8,22.8,0,0,0-5.87-13.58c-6.69-7.78-15.46-11.25-25.46-11.7-11.68-.52-22.1,2.61-30,11.74-3.34,3.84-5.62,8.21-5.8,13.54Z" style="fill:#fff"/><path d="M315,456.58H282V330.23h32.64v17.15l.56.19c.58-.72,1.14-1.44,1.72-2.15,9.36-11.4,21.4-17.39,36.17-17.85,10.95-.35,21.48,1.32,31,7.05,12.76,7.68,19.53,19.51,22.12,33.81a101.81,101.81,0,0,1,1.52,17.35c.17,22.5.07,45,.07,67.51v3H374.06v-3.08c0-20.89.08-41.77-.07-62.65a58.5,58.5,0,0,0-1.48-13.67c-4-16.07-16.15-21.73-30.76-20.3-14,1.38-23.55,11.16-25.77,25.56A80.76,80.76,0,0,0,315,394c-.09,19.83,0,39.66,0,59.49Z" style="fill:#fff"/><path d="M483.46,427v30.83a83.27,83.27,0,0,1-8.52-.05c-7-.72-14.08-1.07-20.87-2.69-14.52-3.47-23.16-13.19-25.75-27.72A146.76,146.76,0,0,1,426,402.57c-.24-39.68-.11-79.35-.12-119v-2.65H459.3V330h24.15v28.63h-24c0,1-.11,1.8-.11,2.58,0,14.33-.07,28.66,0,43a71.67,71.67,0,0,0,.94,11.33c1.12,6.65,5.1,10.06,11.94,10.68C475.9,426.56,479.53,426.76,483.46,427Z" style="fill:#fff"/><path d="M674.56,456.54h-33V271h33Z" style="fill:#fff"/><path d="M229.07,330.2h33.16V456.48H229.07Z" style="fill:#fff"/><path d="M228.23,308.33V274.05h34.4v34.28Z" style="fill:#fff"/><path d="M701.83,457.12c-6.37.3-12.24-5.12-12.58-11.61a12.31,12.31,0,1,1,24.6-.83C714.1,451.12,708.6,456.8,701.83,457.12Zm-.48-2.14c5.8,0,10.19-4.15,10.25-9.75A10.17,10.17,0,1,0,701.35,455Z" style="fill:#fff"/><path d="M704,446.13l3.23,5.56c-1.63.61-2.69.32-3.43-1.19a19.12,19.12,0,0,0-2-3.28,13.06,13.06,0,0,0-2.42-1.69v6.33h-2.57V438c2.44,0,4.9-.36,7.18.14a5,5,0,0,1,3,3.14c.27,1.15-.83,2.69-1.48,4C705.32,445.63,704.62,445.78,704,446.13Zm-4.49-6.62v4.65a34.1,34.1,0,0,0,4.64-1.23,2.8,2.8,0,0,0,0-2.09A34.54,34.54,0,0,0,699.51,439.51Z" style="fill:#fff"/></g></svg>