<svg xmlns="http://www.w3.org/2000/svg" viewBox="0 0 1008 810"><g id="Rams"><path d="M492.76,462c4.36-6.27,8.08-11.78,11.95-17.18,11.32-15.8,22.75-31.52,34-47.34,16.87-23.65,33.61-47.4,50.63-70.95.86-1.2,4.19-1.75,5.77-1.11,16.38,6.63,29.17,17.89,39.79,31.79,1.39,1.82,1.57,3.28-.08,5.52-8.87,12.12-17.41,24.47-26.07,36.74-.25.36-.44.77-.85,1.51H660.8c-1.22-42.64-16.72-79.15-48.54-107.21-45.5-40.12-97.73-48.34-155.07-28.4,1.79-1.06,3.59-2.11,5.38-3.18s3.56-2.34,5.45-3.28c18.68-9.28,38-16.45,59-18.36,10.66-1,21.43-2.44,32-1.83,28.4,1.62,55.25,8.92,80.09,23.43a181.62,181.62,0,0,1,39.09,30.46A177.33,177.33,0,0,1,716.58,353c9.7,25.06,12.2,51,10.67,77.46-.55,9.54-3,19-4.93,28.41a4.73,4.73,0,0,1-3.42,2.93c-23.29.17-46.57.13-70.4.13,2.41-7.15,4.68-13.86,7.08-21-25.14,0-49.76,0-74.38.09a5.23,5.23,0,0,0-3.49,2c-3.66,4.6-7.69,9.06-10.47,14.18-2.33,4.28-5.24,4.84-9.48,4.8C536.47,461.86,515.17,462,492.76,462Z" style="fill:#fff"/><path d="M304.16,462c3.49-8,6.7-15.5,10-22.94q16.65-37.81,33.34-75.63c6.39-14.46,12.77-28.94,19.35-43.31a5.38,5.38,0,0,1,4-2.62c19.12-.17,38.25-.11,59-.11L383.93,421H510.56c-3.63,5.08-6.54,9.29-9.58,13.41-4.86,6.56-9.49,13.33-14.8,19.51-4.92,5.72-11.59,8.11-19.28,8.1q-78.36-.12-156.72-.05Z" style="fill:#fff"/><path d="M447.6,411.81H397.84l45.88-103.62H412.8a136.39,136.39,0,0,1,48.45-33.9c18.41-7.69,37.77-11.77,57.45-10.54,59,3.69,100.85,32.55,123.91,87.35-32.85-39.9-74.74-52.4-123.44-37.22A101.87,101.87,0,0,0,447.6,411.81Z" style="fill:#fff"/><path d="M394.52,472.08c24.12,0,47.73,0,71.34.07a5.38,5.38,0,0,1,3.73,1.6c15.78,19.77,36.11,32.35,60.58,38.18a104.8,104.8,0,0,0,53.83-1.4c2.2-.63,6.45.08,7.22,1.52,1.54,2.91.35,6-3.18,8.06-15.73,9.36-32.37,16.36-50.58,18.6-11.42,1.4-23.1,2.73-34.49,1.84a135.47,135.47,0,0,1-69.05-25C418.49,504.55,403.46,488.62,394.52,472.08Z" style="fill:#fff"/></g></svg>