<svg id="Garrix" xmlns="http://www.w3.org/2000/svg" viewBox="0 0 1008 810"><path d="M155,419.67c.45-1.76.92-3.52,1.35-5.28,3.36-13.73,12-22.21,25.7-25.3,3.37-.77,7-.42,10.5-.53,1.17,0,2.34.1,3.66.16.77-2.18.26-4.4.35-6.58s0-4.22,0-6.33v-6.75h42.81c0,7.15,0,14.26,0,21.52,16-3.2,31.65-3.86,46.45,4.6.67-.36,1.41-.71,2.1-1.13a38.28,38.28,0,0,1,18.69-5.28c6.79-.3,13.61-.3,20.4,0s13.21,1.77,18.75,5.74c2.6-1.31,5-2.58,7.38-3.68,5.39-2.41,11.13-2.48,16.89-2.28,1.15,0,2.3,0,3.77,0V369.1h42.41c.17,6.63,0,13.27.11,20.11,1.29.1,2.42.25,3.56.26,4.57,0,9.15.08,13.72,0,1.5,0,3-.56,4.49-.64,5.61-.32,11.23-.74,16.8.56a27.25,27.25,0,0,1,8.8,4c13.06-6.7,26-6.95,38.57.16,3.73-1.21,7.24-2.45,10.81-3.48a45.58,45.58,0,0,1,12.85-1.5c4.57,0,9.15,0,13.72.12,1.86,0,3.71.41,5.57.58,1.49.13,3,.18,4.85.29-2.72-3.4-5.21-6.32-7.5-9.39a84.47,84.47,0,0,1-12.46-23.07,69.75,69.75,0,0,1-3.47-16.4,53.14,53.14,0,0,1,5.07-28.22,52.29,52.29,0,0,1,13.87-17.92c11.55-9.61,25-14.78,39.72-17.21A118.21,118.21,0,0,1,613,276.17a145.9,145.9,0,0,1,74,27.28c14.58,10.7,26.57,23.64,34.54,40.05.2.41.44.81.78,1.41q34-14,68.26.42c.48-2.36.82-4.4,1.33-6.41a84.35,84.35,0,0,1,18.53-35.77,61,61,0,0,1,18.7-14.59,32.74,32.74,0,0,1,19.07-3.31,21.67,21.67,0,0,1,13.82,7.66,33.46,33.46,0,0,1,7.83,19.53c.15,1.74.5,3.48.51,5.22a73.8,73.8,0,0,1-5.75,29c-4.45,10.69-10.5,20.39-19,28.4-1.69,1.59-3.53,3-5.29,4.53-1.28-.39-2.38-.75-3.5-1.05a6.53,6.53,0,0,0-7.34,2.69,13.47,13.47,0,0,0-2.46,6.85,30.2,30.2,0,0,0,5.09,21c1.94,2.79,4.39,4.82,7.89,5.17,2,21.7-3.28,41.25-16.13,58.63a82.66,82.66,0,0,1-43.81,30.66,65.87,65.87,0,0,1-14.39,2.85,5.38,5.38,0,0,0-1.5.59H748a8,8,0,0,0-1.51-.59c-3.34-.55-6.75-.81-10-1.63-21.34-5.3-38.33-17-50.68-35.2-2.66-3.94-4.85-8.2-7.29-12.37a42.78,42.78,0,0,1-20.35,7.74,80.29,80.29,0,0,1-26.43-1.3,24.45,24.45,0,0,1-4.09.42c-11.73,0-23.46,0-35.19,0a29.18,29.18,0,0,0-4.14.48c-5.22.77-10.44,1.46-15.68.23a41.49,41.49,0,0,0-9.76-.74c-8.09,0-16.18,0-24.22,0-.6-.53-1.12-1-1.66-1.44-.07-.06-.22,0-.35,0a3.1,3.1,0,0,0-.67.1,48.77,48.77,0,0,1-24.54,2.07,60.15,60.15,0,0,0-10.12-.71q-60.88,0-121.77,0a29.37,29.37,0,0,0-4.84.53c-4.87.84-9.73,1.26-14.64.19a43.08,43.08,0,0,0-9.76-.76c-8.8.06-17.59,0-26.33,0l-1.93-1.61a51.14,51.14,0,0,1-19.37,2.94c-6.63-.22-12.93-1.67-18.43-5.12-13,6.46-33.14,6.13-43.33,3.23-2,.23-3.5.53-5,.54-11.26,0-22.52,0-33.78,0a23.36,23.36,0,0,0-4.15.48,41.57,41.57,0,0,1-16.37.1,30,30,0,0,1-16.5-9.39,38.69,38.69,0,0,1-8.66-16.64c-.47-1.87-1-3.74-1.44-5.6Zm404.24-12.81a19.32,19.32,0,0,0-11.39-7.27c-6.31-1.44-12.78-1.34-19.19-1.55-3.57-.11-7.18.69-10.77,1.09-6.64.73-12.2,3.44-16.29,9.25a16,16,0,0,0-11.74-9.52,31,31,0,0,0-10-.51,22.16,22.16,0,0,0-12.73,5.27c-1.3,1.13-2.66,2.2-4.08,3.37-3.18-5.14-7.61-8-13.52-8.52a40.06,40.06,0,0,0-8.34-.07,21.55,21.55,0,0,0-11,4.18c-1.5,1.17-3,2.38-4.95,3.94V399.2H406.49v-6.88c0-2.34.07-4.69,0-7-.09-2.17.43-4.39-.36-6.51H384.49c-.1,0-.2.1-.29.17a5,5,0,0,0-.42.42v12.11c0,4.13,0,8.26,0,12.77-3.35-2.23-6.18-4.32-9.7-5.13a30.36,30.36,0,0,0-10.71-.73,25.19,25.19,0,0,0-9.88,3.3c-3.12,1.85-5.34,4.64-7.73,7.55-2.53-5.25-6.54-8-11.66-9.37-6.63-1.78-13.45-1.61-20.2-1.8-3.92-.12-7.89.66-11.82,1.21a21.51,21.51,0,0,0-11.14,4.78,53.55,53.55,0,0,0-4.76,5.22c-.47-.62-.91-1.3-1.45-1.89a26.21,26.21,0,0,0-15.2-8.11,67.08,67.08,0,0,0-16.7-.93c-9,.64-16.68,3.77-23.14,10.72,0-5.31,0-10.22,0-15.14s.07-10-.06-15c-6-.63-20.65-.41-23.17.37,0,8,0,16.12,0,24.21a.5.5,0,0,1-.16.3.22.22,0,0,1-.16,0c-1.34-.88-2.57-1.78-3.88-2.53a24.94,24.94,0,0,0-16.2-2.88c-9.18,1.2-15.65,6-19,14.62-3.16,8.25-3,16.78-.46,25.15a25.61,25.61,0,0,0,8.88,13.2c7.68,5.9,23.24,6,30.28-2.38.52-.62,1.17-1.13,2.18-2.09v6.93c3.62.67,19,.59,21.64-.08.26-2.77-.13-5.63.23-8.52,1.33,1.25,2.41,2.3,3.53,3.32,5.62,5.1,12.6,6.47,19.8,6.9a70.08,70.08,0,0,0,15.78-.65c5.13-.86,10-2.39,14.09-5.79l2-1.72a17.43,17.43,0,0,0,12.46,7.58,63.53,63.53,0,0,0,8,.61c7.83,0,15.06-1.85,21-7.43,1.1,2.08,1,4.66,3,6.11H350c.1,0,.21-.1.29-.18a1.15,1.15,0,0,0,.13-.31c-.47-1-1-2.08-1.42-3.18s-.58-2-.85-3a22.79,22.79,0,0,0,11.9,7.36,28.32,28.32,0,0,0,13.54-.14c4.63-1.19,8.11-4.21,11.79-8.07V454c4,.54,38.52.45,41.46-.13v-2.7c0-8.57,0-17.13,0-25.7a13.51,13.51,0,0,1,1.26-6.12,8.38,8.38,0,0,1,7.74-4.54,6.83,6.83,0,0,1,6.16,5,12.55,12.55,0,0,1,.34,3.47c0,9.39,0,18.78,0,28.17,0,.9.12,1.81.18,2.74h22.4c.05-.85.12-1.53.12-2.21,0-8.21,0-16.43,0-24.64a32.46,32.46,0,0,1,.61-5.91,8.33,8.33,0,0,1,8-6.6c3.46,0,6.07,2.52,6.88,6.68a18.3,18.3,0,0,1,.34,3.47c0,8.8,0,17.6,0,26.4,0,.91.09,1.81.14,2.81h22.18L504,452c10.43,5.74,27.68,4.81,37.25-3.73.81,1.94,1.66,3.94,2.46,5.85h21.24c-.27-1.24-.5-2.27-.89-4.11,5.87,5.3,12.32,6,19,5.42s12.13-4.15,17.17-9.5v8.16h21v-7.5c.33,0,.46,0,.53.07.36.28.72.58,1.07.88a29.79,29.79,0,0,0,13,6.68,60,60,0,0,0,24.75.41,25.88,25.88,0,0,0,15.6-8.83,27.45,27.45,0,0,0,6.52-21.46,21.9,21.9,0,0,0-8.23-15c-7.34-6-16-6.89-24.92-5.55a71.71,71.71,0,0,0-8.4,2.29c.59-3.61,1.14-6.91,1.72-10.47h36V378.82H625.3c-1.24,7-2.46,13.91-3.68,20.82-3.61-.6-20.35-.5-22.85.13,0,.57-.08,1.15-.08,1.73,0,7.87,0,15.73,0,23.59a35.29,35.29,0,0,1-.73,7,7.88,7.88,0,0,1-5.77,6.45C587,440,583,437.33,582.44,432c-.26-2.43-.44-4.89-.46-7.34-.06-7.51,0-15,0-22.53,0-.89-.16-1.78-.24-2.62-5.66-.46-19.68-.31-22.43.25Zm141.61,51.56a7.8,7.8,0,0,0,.17,1.21c6.72,16.83,18.64,28.4,35.56,34.71a75.06,75.06,0,0,0,32.69,4.4,82.06,82.06,0,0,0,12.13-1.63c15.93-3.74,28.65-12.35,38.42-25.39,8.19-11,13.32-23.31,16.63-36.46.48-1.9,1.49-3.93.79-6-3.16,2.53-6.16,5.14-9.38,7.47a119.32,119.32,0,0,1-33.85,16.67,131.24,131.24,0,0,1-25.21,5.77c-6.15.7-12.28,1.73-18.44,1.93-9.95.31-19.92.64-29.86-.54-4.29-.51-8.59-.92-12.89-1.4C705.48,459,703.31,458.7,700.89,458.42Zm34.16-4.1c13.17.51,25.6-10.5,25.44-25.3s-11.18-25.4-25.46-25.4c-13.83,0-25.24,9.82-25.44,25.41A24.77,24.77,0,0,0,735.05,454.32Z" style="fill:#fff"/><path d="M559.28,406.86v-7.13c2.75-.56,16.77-.71,22.43-.25.08.84.24,1.73.24,2.62,0,7.51,0,15,0,22.53,0,2.45.2,4.91.46,7.34.56,5.36,4.52,8,9.71,6.53a7.88,7.88,0,0,0,5.77-6.45,35.29,35.29,0,0,0,.73-7c.09-7.86,0-15.72,0-23.59,0-.58,0-1.16.08-1.73,2.5-.63,19.24-.73,22.85-.13,1.22-6.91,2.44-13.83,3.68-20.82h53.54v16.86h-36c-.58,3.56-1.13,6.86-1.72,10.47a71.71,71.71,0,0,1,8.4-2.29c9-1.34,17.58-.43,24.92,5.55a21.9,21.9,0,0,1,8.23,15,27.45,27.45,0,0,1-6.52,21.46,25.88,25.88,0,0,1-15.6,8.83,60,60,0,0,1-24.75-.41,29.79,29.79,0,0,1-13-6.68c-.35-.3-.71-.6-1.07-.88-.07-.05-.2,0-.53-.07v7.5h-21V446c-5,5.35-10.41,8.91-17.17,9.5s-13.13-.12-19-5.42c.39,1.84.62,2.87.89,4.11H543.68c-.8-1.91-1.65-3.91-2.46-5.85-9.57,8.54-26.82,9.47-37.25,3.73l-.68,2.09H481.11c-.05-1-.14-1.9-.14-2.81,0-8.8,0-17.6,0-26.4a18.3,18.3,0,0,0-.34-3.47c-.81-4.16-3.42-6.66-6.88-6.68a8.33,8.33,0,0,0-8,6.6,32.46,32.46,0,0,0-.61,5.91c-.06,8.21,0,16.43,0,24.64,0,.68-.07,1.36-.12,2.21h-22.4c-.06-.93-.18-1.84-.18-2.74,0-9.39,0-18.78,0-28.17a12.55,12.55,0,0,0-.34-3.47,6.83,6.83,0,0,0-6.16-5,8.38,8.38,0,0,0-7.74,4.54,13.51,13.51,0,0,0-1.26,6.12c.05,8.57,0,17.13,0,25.7v2.7c-2.94.58-37.43.67-41.46.13v-7.32c-3.68,3.86-7.16,6.88-11.79,8.07a28.32,28.32,0,0,1-13.54.14,22.79,22.79,0,0,1-11.9-7.36c.27,1,.49,2,.85,3s.95,2.14,1.42,3.18a1.15,1.15,0,0,1-.13.31c-.08.08-.19.18-.29.18H329.47c-1.94-1.45-1.87-4-3-6.11-5.92,5.58-13.15,7.44-21,7.43a63.53,63.53,0,0,1-8-.61A17.43,17.43,0,0,1,285,447.33l-2,1.72c-4.1,3.4-9,4.93-14.09,5.79a70.08,70.08,0,0,1-15.78.65c-7.2-.43-14.18-1.8-19.8-6.9-1.12-1-2.2-2.07-3.53-3.32-.36,2.89,0,5.75-.23,8.52-2.65.67-18,.75-21.64.08v-6.93c-1,1-1.66,1.47-2.18,2.09-7,8.38-22.6,8.28-30.28,2.38a25.61,25.61,0,0,1-8.88-13.2c-2.56-8.37-2.7-16.9.46-25.15,3.31-8.6,9.78-13.42,19-14.62a24.94,24.94,0,0,1,16.2,2.88c1.31.75,2.54,1.65,3.88,2.53a.22.22,0,0,0,.16,0,.5.5,0,0,0,.16-.3c0-8.09,0-16.18,0-24.21,2.52-.78,17.14-1,23.17-.37.13,5,0,10,.06,15s0,9.83,0,15.14c6.46-6.95,14.17-10.08,23.14-10.72a67.08,67.08,0,0,1,16.7.93,26.21,26.21,0,0,1,15.2,8.11c.54.59,1,1.27,1.45,1.89a53.55,53.55,0,0,1,4.76-5.22,21.51,21.51,0,0,1,11.14-4.78c3.93-.55,7.9-1.33,11.82-1.21,6.75.19,13.57,0,20.2,1.8,5.12,1.38,9.13,4.12,11.66,9.37,2.39-2.91,4.61-5.7,7.73-7.55a25.19,25.19,0,0,1,9.88-3.3,30.36,30.36,0,0,1,10.71.73c3.52.81,6.35,2.9,9.7,5.13.05-4.51,0-8.64,0-12.77V379.36a5,5,0,0,1,.42-.42c.09-.07.19-.17.29-.17h21.62c.79,2.12.27,4.34.36,6.51.09,2.35,0,4.7,0,7v6.88h18.76v7.32c2-1.56,3.45-2.77,4.95-3.94a21.55,21.55,0,0,1,11-4.18,40.06,40.06,0,0,1,8.34.07c5.91.5,10.34,3.38,13.52,8.52,1.42-1.17,2.78-2.24,4.08-3.37a22.16,22.16,0,0,1,12.73-5.27,31,31,0,0,1,10,.51,16,16,0,0,1,11.74,9.52c4.09-5.81,9.65-8.52,16.29-9.25,3.59-.4,7.2-1.2,10.77-1.09,6.41.21,12.88.11,19.19,1.55A19.32,19.32,0,0,1,559.28,406.86Zm78.86,25.35c.56,1.62.93,3,1.49,4.24a10,10,0,0,0,9.45,6.14c3.91.09,7.39-1.57,9.21-5.31a17.3,17.3,0,0,0,.15-15.26,8.8,8.8,0,0,0-7.09-5.14A14.16,14.16,0,0,0,639.83,420c-.8.66-1.59,1.33-2.47,2.07l-16.08-2.11c0,2.47,0,4.69,0,6.9s-.32,4.63.33,7ZM197,440c.78-.19,1.45-.41,2.14-.52a7.75,7.75,0,0,0,6.19-5.11,19.71,19.71,0,0,0,0-14.66,9,9,0,0,0-9-5.49c-4,.35-6.64,2.33-7.83,6.42a21.23,21.23,0,0,0,.39,13.72,8,8,0,0,0,5.78,5.09Zm187.1-13.26c-.48-2.11-.82-4.29-1.48-6.38-1.17-3.76-5.26-6.34-9.27-6.17-3.55.15-6.59,2.68-7.71,6.61a22.93,22.93,0,0,0,0,12.46,8.91,8.91,0,0,0,8.49,6.65,9.18,9.18,0,0,0,8.62-6.54C383.35,431.27,383.61,429.06,384.07,426.74Zm119.68.17c3.37-1,6.63-2.27,10-3.06,6.45-1.51,13-2.71,19.44-4.19,2.43-.55,5-1.07,7-2.52-.34-4.66-2.61-6.16-6.7-6-.7,0-1.4,0-2.11,0-4.8-.27-8.43,1.44-10.37,6.06,0,.1-.18.15-.23.19l-17-1.55Zm-256.62,5.51c.75,4.71,2.58,8.23,6.9,9.74,5.6,2,10.34.35,14.23-4.28l14.37,1.23c.55-2.23,1.09-4.4,1.65-6.69Zm78.32-15.1c-.56-4.64-1.95-6.05-5.95-6.19-1.64-.06-3.29,0-4.92.07-3.39.2-6.08,1.56-7.6,4.77a14.23,14.23,0,0,1-.87,1.41c-5.34-.33-10.47-1.48-15.79-1.23.61,3.43,1.16,6.54,1.72,9.66,6.76-2.42,13.73-3.3,20.57-4.72A64.16,64.16,0,0,0,325.45,417.32Zm-.2,11.28c-5.12,1.48-10,2.88-14.91,4.33a7.82,7.82,0,0,0-2.19,1.07c-3.48,2.41-3.13,6.93.66,8.77a6.37,6.37,0,0,0,2,.7c4.38.46,8.39-.5,11.66-3.59S325.78,433,325.25,428.6Zm214.58.1c-4.61,1.26-9.22,2.47-13.8,3.79a11.58,11.58,0,0,0-3.15,1.51,4.83,4.83,0,0,0-2.34,4.78,4.65,4.65,0,0,0,3.27,4.15,10.51,10.51,0,0,0,2,.6C534.92,444.92,541.52,438,539.83,428.7Zm-271.41-7.06c-.09-7.4-5-11-11-10.58-5.83.39-9.89,4.46-9.84,10.58Z"/><path d="M700.89,458.42c2.42.28,4.59.55,6.76.78,4.3.48,8.6.89,12.89,1.4,9.94,1.18,19.91.85,29.86.54,6.16-.2,12.29-1.23,18.44-1.93a131.24,131.24,0,0,0,25.21-5.77,119.32,119.32,0,0,0,33.85-16.67c3.22-2.33,6.22-4.94,9.38-7.47.7,2-.31,4.06-.79,6-3.31,13.15-8.44,25.51-16.63,36.46-9.77,13-22.49,21.65-38.42,25.39a82.06,82.06,0,0,1-12.13,1.63,75.06,75.06,0,0,1-32.69-4.4c-16.92-6.31-28.84-17.88-35.56-34.71A7.8,7.8,0,0,1,700.89,458.42Z"/><path d="M735.05,454.32A24.77,24.77,0,0,1,709.59,429c.2-15.59,11.61-25.4,25.44-25.41,14.28,0,25.3,10.65,25.46,25.4S748.22,454.83,735.05,454.32Z"/><path d="M638.14,432.21l-16.51,1.63c-.65-2.4-.26-4.73-.33-7s0-4.43,0-6.9L637.36,422c.88-.74,1.67-1.41,2.47-2.07a14.16,14.16,0,0,1,11.52-3.07,8.8,8.8,0,0,1,7.09,5.14,17.3,17.3,0,0,1-.15,15.26c-1.82,3.74-5.3,5.4-9.21,5.31a10,10,0,0,1-9.45-6.14C639.07,435.18,638.7,433.83,638.14,432.21Z" style="fill:#fff"/><path d="M197,440l-2.3-.55a8,8,0,0,1-5.78-5.09,21.23,21.23,0,0,1-.39-13.72c1.19-4.09,3.79-6.07,7.83-6.42a9,9,0,0,1,9,5.49,19.71,19.71,0,0,1,0,14.66,7.75,7.75,0,0,1-6.19,5.11C198.42,439.59,197.75,439.81,197,440Z" style="fill:#fff"/><path d="M384.07,426.74c-.46,2.32-.72,4.53-1.36,6.63a9.18,9.18,0,0,1-8.62,6.54,8.91,8.91,0,0,1-8.49-6.65,22.93,22.93,0,0,1,0-12.46c1.12-3.93,4.16-6.46,7.71-6.61,4-.17,8.1,2.41,9.27,6.17C383.25,422.45,383.59,424.63,384.07,426.74Z" style="fill:#fff"/><path d="M503.75,426.91V415.8l17,1.55c.05,0,.2-.09.23-.19,1.94-4.62,5.57-6.33,10.37-6.06.71,0,1.41,0,2.11,0,4.09-.12,6.36,1.38,6.7,6-2,1.45-4.57,2-7,2.52-6.47,1.48-13,2.68-19.44,4.19C510.38,424.64,507.12,425.87,503.75,426.91Z" style="fill:#fff"/><path d="M247.13,432.42h37.15c-.56,2.29-1.1,4.46-1.65,6.69l-14.37-1.23c-3.89,4.63-8.63,6.24-14.23,4.28C249.71,440.65,247.88,437.13,247.13,432.42Z" style="fill:#fff"/><path d="M325.45,417.32a64.16,64.16,0,0,1-12.84,3.77c-6.84,1.42-13.81,2.3-20.57,4.72-.56-3.12-1.11-6.23-1.72-9.66,5.32-.25,10.45.9,15.79,1.23A14.23,14.23,0,0,0,307,416c1.52-3.21,4.21-4.57,7.6-4.77,1.63-.1,3.28-.13,4.92-.07C323.5,411.27,324.89,412.68,325.45,417.32Z" style="fill:#fff"/><path d="M325.25,428.6c.53,4.36.41,8.25-2.81,11.28s-7.28,4.05-11.66,3.59a6.37,6.37,0,0,1-2-.7c-3.79-1.84-4.14-6.36-.66-8.77a7.82,7.82,0,0,1,2.19-1.07C315.23,431.48,320.13,430.08,325.25,428.6Z" style="fill:#fff"/><path d="M539.83,428.7c1.69,9.31-4.91,16.22-14,14.83a10.51,10.51,0,0,1-2-.6,4.65,4.65,0,0,1-3.27-4.15,4.83,4.83,0,0,1,2.34-4.78,11.58,11.58,0,0,1,3.15-1.51C530.61,431.17,535.22,430,539.83,428.7Z" style="fill:#fff"/><path d="M268.42,421.64H247.55c-.05-6.12,4-10.19,9.84-10.58C263.42,410.65,268.33,414.24,268.42,421.64Z" style="fill:#fff"/></svg>