<svg xmlns="http://www.w3.org/2000/svg" viewBox="0 0 1008 810"><g id="NFL"><path d="M515.26,640.83a6.84,6.84,0,0,1-.85-1c-11-16.51-26.45-28.73-45.81-36.31A156,156,0,0,0,436.9,595l-3.77-.61a244.86,244.86,0,0,1-25.84-5.14c-13.76-3.79-24.59-8.42-34.1-14.59a69.53,69.53,0,0,1-19.54-18.33,54.93,54.93,0,0,1-10.28-32.14q.06-112.77,0-225.55V228l6.13-3.39.74.46,1.24.79A104.9,104.9,0,0,0,393,241.64a99.75,99.75,0,0,0,15.34,1.19,109.08,109.08,0,0,0,30.72-4.59A134.8,134.8,0,0,0,495.23,206,111.21,111.21,0,0,0,514,182.8a8.85,8.85,0,0,1,.5-.74l.25-.35,6.66.16.57.92.92,1.46A124.89,124.89,0,0,0,556,218.53a131.13,131.13,0,0,0,52.91,22.55,112.84,112.84,0,0,0,20,1.84c20.05,0,39.23-5.86,57-17.42l.72-.43.39-.23,6,2.9.06.4a9.08,9.08,0,0,1,.14,1.3c0,.5,0,1,0,1.53v72.52c0,71.66,0,145.76,0,218.64,0,16-5.77,30.11-17.2,41.89-6.61,6.82-14.82,12.47-25.12,17.29a145,145,0,0,1-35.07,10.93c-3.44.65-6.94,1.23-10.31,1.78-3.85.64-7.83,1.29-11.68,2.05-15.4,3-28.54,7.73-40.19,14.37a93.21,93.21,0,0,0-31.09,28.82c-.22.3-.43.61-.68.93l-.33.46-6.22.34Z"/><path d="M518,184l1.5,2.41a128.08,128.08,0,0,0,34.22,35.38A134.79,134.79,0,0,0,608.21,245a116.22,116.22,0,0,0,20.71,1.9q31.4,0,59.2-18.06c.26-.17.53-.32,1-.59.07.53.15.93.17,1.32,0,.64,0,1.27,0,1.9q0,145.32,0,290.64c0,15.32-5.52,28.22-16.07,39.11-6.87,7.08-15.06,12.29-24,16.45a142,142,0,0,1-34.11,10.62c-7.32,1.38-14.71,2.4-22,3.84-14.53,2.85-28.46,7.44-41.39,14.81a96.93,96.93,0,0,0-32.42,30c-.28.42-.59.82-1,1.32a9,9,0,0,1-.64-.73c-11.84-17.73-27.93-30.09-47.68-37.82A159.43,159.43,0,0,0,437.55,591c-9.79-1.6-19.61-3-29.2-5.66-11.63-3.2-22.81-7.48-33-14.08A66.05,66.05,0,0,1,356.92,554a50.58,50.58,0,0,1-9.55-29.83q.08-146.74,0-293.49V228c.81.51,1.38.85,1.92,1.21a108.4,108.4,0,0,0,43.09,16.36,102.72,102.72,0,0,0,16,1.24,112.09,112.09,0,0,0,31.85-4.76A138.06,138.06,0,0,0,498,208.84a115.73,115.73,0,0,0,19.38-24c.12-.22.28-.41.59-.85m-6.55-4.59-.22.3c-.19.27-.43.6-.69,1a107.47,107.47,0,0,1-18.06,22.33A130.91,130.91,0,0,1,438,234.4a104.83,104.83,0,0,1-29.59,4.43,96.94,96.94,0,0,1-14.73-1.14,101.09,101.09,0,0,1-39.94-15.16c-.41-.27-.82-.52-1.31-.83l-.74-.46L339.4,228v69.5c0,74.28,0,151.08,0,226.63a58.81,58.81,0,0,0,11,34.44A73.57,73.57,0,0,0,371,578c9.86,6.39,21.05,11.19,35.22,15.09a247.6,247.6,0,0,0,26.28,5.23l3.75.6a152.8,152.8,0,0,1,30.88,8.32C486,614.6,500.37,626,511.08,642a11.15,11.15,0,0,0,1.3,1.58l.08.08,12.41-.69.31-.43c.28-.37.53-.72.76-1.07a89.43,89.43,0,0,1,29.77-27.59c11.27-6.42,24-11,39-13.91,3.79-.75,7.74-1.4,11.56-2,3.4-.56,6.92-1.14,10.4-1.8a148.78,148.78,0,0,0,36-11.24c10.75-5,19.35-10.95,26.3-18.12,12.18-12.56,18.34-27.59,18.33-44.68,0-72.81,0-146.84,0-218.43q0-36.1,0-72.21V231c0-.51,0-1.09,0-1.74a14.14,14.14,0,0,0-.19-1.74c0-.1,0-.21-.05-.33l-12-5.78-.35.2c-.35.21-.62.37-.88.54-17.13,11.13-35.58,16.77-54.84,16.77a108.67,108.67,0,0,1-19.29-1.77,127.24,127.24,0,0,1-51.3-21.88,120.82,120.82,0,0,1-32.11-33.18l-.93-1.48-.54-.86-13.32-.34Z" style="fill:#fff"/><path d="M367.45,369.82H668.92c.08.53.18,1,.21,1.49s0,1.27,0,1.9q0,75.93,0,151.87a29.87,29.87,0,0,1-5.59,17.58,46.31,46.31,0,0,1-12.77,12,92.38,92.38,0,0,1-24.47,11,201.23,201.23,0,0,1-26.27,5.71c-20.75,3.39-40.58,9.5-58.87,20.1a95.12,95.12,0,0,0-21.9,16.8c-.9,1-1.13,1-2,.08-9.75-10.26-21.6-17.43-34.33-23.28a176.28,176.28,0,0,0-44.52-13.36c-9.54-1.6-19.06-3.24-28.32-6.1a95.53,95.53,0,0,1-23-10.15A50.56,50.56,0,0,1,374.94,545a31.14,31.14,0,0,1-7.21-15,23.86,23.86,0,0,1-.26-3.78q0-77.18,0-154.34Zm24.74,147.1L381.82,521v16.68l45.07,11.48a9.13,9.13,0,0,0,.15-1c0-5.82,0-11.64,0-17.46a2.12,2.12,0,0,0-1-1.86c-2.63-2-5.19-4-7.87-6a3.56,3.56,0,0,1-1.62-3.31q.07-29.52,0-59v-1.82l.39-.08c.22.55.47,1.08.66,1.64q7.25,21.38,14.46,42.76,8.39,24.8,16.76,49.59c.35,1,.65,1.9,1.94,2.27,6.56,1.87,13.09,3.87,19.63,5.81a13.58,13.58,0,0,0,1.53.25V413.14c0-.57.05-1.15,0-1.71a1.86,1.86,0,0,1,1.12-2c2.15-1.21,4.22-2.56,6.39-3.72a2.48,2.48,0,0,0,1.44-2.56c-.07-5.19,0-10.38,0-15.57,0-.55-.08-1.1-.12-1.62-2.23-.44-40.77-.34-42.11.1v18.82c2.54,1.44,5,2.92,7.62,4.26a2.73,2.73,0,0,1,1.63,2.83q0,34.54,0,69.1c0,.53-.07,1.07-.11,1.6l-.39.07q-15.81-48.58-31.59-97.06c-5.06-.42-32.74-.23-34.15.21a2.47,2.47,0,0,0-.11.54c0,5.7,0,11.39,0,17.09a1.71,1.71,0,0,0,1.17,1.72c2.5,1.2,5,2.54,7.5,3.64a3,3,0,0,1,2.08,3.27q-.09,51.26,0,102.52ZM490.29,565c.53.23.92.42,1.33.58l42.81,16a1.44,1.44,0,0,0,.37.05.41.41,0,0,0,.18-.05,2,2,0,0,0,.22-.22c0-5.84,0-11.79,0-17.73a3.26,3.26,0,0,0-.81-1.82c-2.31-2.84-4.66-5.67-7.06-8.44a4.37,4.37,0,0,1-1.12-3.08q0-35.31,0-70.63v-2.05a8.84,8.84,0,0,1,1.16-.18c4.36,0,8.73,0,13.09,0a2,2,0,0,1,1.83,1.07c1.6,2.35,3.24,4.67,4.81,6.93h11.86v-40c-3.54,0-6.94,0-10.34,0a2.39,2.39,0,0,0-2.3,1.27c-1.34,2.07-2.81,4.06-4.13,6.14a2.54,2.54,0,0,1-2.49,1.28c-3.92-.05-7.84,0-11.76,0a12.69,12.69,0,0,1-1.42-.13c-.45-2.15-.36-43.78.09-45.22h19.72q2.61,8,5.16,15.81c2.62.35,15.61.26,17-.1.37-2.88.22-37.3-.16-38.6H490.54a4.58,4.58,0,0,0-.18.84c0,5.76,0,11.52,0,17.27a1.74,1.74,0,0,0,1.19,1.72c2.32,1.15,4.58,2.44,7,3.47a2.44,2.44,0,0,1,1.72,2.92,3.62,3.62,0,0,0,0,.57V542.18c0,.51,0,1,0,1.52a1.4,1.4,0,0,1-1.07,1.55c-2.41.94-4.8,2-7.19,2.94-.57.24-1.12.53-1.64.77Zm123.57-41.45V412.4c0-.31,0-.63,0-.94a1.81,1.81,0,0,1,1.16-1.94c2.17-1.18,4.28-2.45,6.46-3.61a2.2,2.2,0,0,0,1.33-2.23c-.06-5.44,0-10.88,0-16.32a12.85,12.85,0,0,0-.16-1.48h-44.7v19.31c2.58,1.36,5.11,2.8,7.74,4a2.69,2.69,0,0,1,1.72,2.93c-.08,5.45,0,10.89,0,16.33q0,50,0,100a3.59,3.59,0,0,1-1.51,3.2c-2.9,2.24-5.67,4.65-8.54,6.93a2.73,2.73,0,0,0-1.13,2.41c0,5.51,0,11,0,16.52,0,.47.09.95.15,1.57l79-21.09V488.87c-2.25-.39-16.84-.31-18.29.11-1.22,9.67-2.45,19.38-3.69,29.28Z" style="fill:#fff"/><path d="M479.12,349.84c-.41-.82-.87-1.62-1.22-2.46a69,69,0,0,1-3.68-13.12,89.28,89.28,0,0,1-1.52-26.44c2.84-28,16.86-48.21,42.2-60.43A79.63,79.63,0,0,1,546,239.72c2.2-.1,4.41,0,6.61,0a7.62,7.62,0,0,1,1.18.29,13.11,13.11,0,0,1-1.27.78,95.56,95.56,0,0,0-18.09,10.67,2.49,2.49,0,0,1-2.59.41c-5.15-1.69-3.17-1.83-7.66,1.05-.41.27-.78.6-1.45,1.13a48.43,48.43,0,0,1,17.88,9.13c1.42-1.3,2.78-2.56,4.35-4L539,255a4.28,4.28,0,0,1,.44-.65,90.18,90.18,0,0,1,14.73-11.9c2.16-1.36,3.09-1.17,4,1.27a91.55,91.55,0,0,1,3.44,10.43,79.76,79.76,0,0,1-1.74,45.62c-5.73,16.91-16.78,29.5-32.09,38.46A103.76,103.76,0,0,1,496.31,350c-3.77.79-7.59,1.33-11.39,2a5.82,5.82,0,0,1-1.5.08c-1.42-.12-1.72-.52-1.4-2A173.85,173.85,0,0,1,490.57,323a175.84,175.84,0,0,1,9.28-19.51c.37-.66.75-1.3,1.18-2.05,2.4,1,4.26,2.59,6.52,4.07,1-1.53,1.9-3.05,2.93-4.71a45.34,45.34,0,0,0-20.18-9.29c-.8,1.57-1.58,3.13-2.41,4.78l6.49,1.92a181.86,181.86,0,0,0-9.46,25.34,176.53,176.53,0,0,0-5.4,26.26ZM494,284.66a47.31,47.31,0,0,1,20.52,9.68l3.45-5a46.86,46.86,0,0,0-20.63-9.91Zm32.23-6.21A43.52,43.52,0,0,0,515,271.53c-2.56-1.06-5.23-1.83-7.88-2.64a2.1,2.1,0,0,0-1.74.18c-1.21,1.22-2.27,2.61-3.57,4.16a48.62,48.62,0,0,1,20.64,10Zm9-9.94a2.23,2.23,0,0,0-.32-.53,45.43,45.43,0,0,0-17.77-9,1.61,1.61,0,0,0-1.23.14c-1.48,1.15-2.89,2.39-4.65,3.87a48.41,48.41,0,0,1,20,9.73Z" style="fill:#fff"/><path d="M456,353.84l-13-9.13q-6.55,4.6-13.12,9.2l-.35-.21c1.44-5.23,3.26-10.36,4.79-15.7l-13.22-9.93c1.48-.66,2.79-.3,4.05-.36s2.78,0,4.17,0h8.11l5.34-15.21.38-.06c1.11,2.42,1.81,5,2.72,7.5s1.76,5,2.71,7.71c2.68.13,5.38,0,8.08.06s5.37,0,8.05,0l.11.45-13.14,9.94,4.77,15.44Z" style="fill:#fff"/><path d="M397,353.9l-13.09-9.19-13.4,9.4a29.06,29.06,0,0,1,1.48-5.55c.52-1.76,1.08-3.5,1.62-5.25s1.07-3.48,1.63-5.3l-13.07-9.82.14-.45,8.05-.05h8c1.84-5.21,3.6-10.24,5.37-15.27l.36,0c.21.49.45,1,.62,1.47,1.42,4.05,2.82,8.11,4.24,12.17.55,1.58.57,1.59,2.29,1.6h14.34l.16.46c-4.33,3.3-8.67,6.59-13.13,10l4.8,15.5Z" style="fill:#fff"/><path d="M580,300.19l4.82-15.54-13.32-10.09c2-.53,3.78-.23,5.49-.28s3.67,0,5.5,0h5.38c1.83-5.19,3.62-10.29,5.42-15.39l.39,0c1.79,5.1,3.59,10.2,5.42,15.41h16a44.64,44.64,0,0,1-6.34,5.34c-2.15,1.66-4.33,3.28-6.59,5,1.61,5.21,3.2,10.36,4.8,15.51l-.33.28-13.08-9.18-13.17,9.21Z" style="fill:#fff"/><path d="M665.86,300.34l-13-9.08-13.15,9.21-.36-.26c1.6-5.16,3.19-10.32,4.82-15.56l-13-9.86a1.24,1.24,0,0,1,.08-.29c0-.05.07-.12.11-.12h15.85L652.65,259h.45l5.36,15.27h16l.17.44c-4.31,3.33-8.69,6.57-13.13,10L666.29,300Z" style="fill:#fff"/><path d="M593.66,312.06l5.41,15.36H615a3,3,0,0,1,.12.34.25.25,0,0,1-.05.16l-12.91,9.92c1.59,5.14,3.19,10.29,4.88,15.74a26.48,26.48,0,0,1-4.64-3c-1.52-1-3-2.11-4.5-3.16s-2.89-2-4.4-3l-13.16,9.23-.33-.27c1.59-5.16,3.19-10.32,4.82-15.58l-13.22-10c1.44-.68,2.76-.3,4-.36s2.78,0,4.17,0h8.08l5.4-15.36Z" style="fill:#fff"/><path d="M647.27,327.41c1.81-5.15,3.58-10.2,5.43-15.48,1,1.27,1.23,2.66,1.71,3.9s.87,2.51,1.3,3.76.92,2.63,1.39,3.94.89,2.48,1.4,3.92h16l.14.42-13.11,9.93c1.61,5.22,3.19,10.32,4.77,15.42l-.39.29-13-9.11-13.1,9.18-.34-.19c1.36-5.19,3.22-10.24,4.72-15.62l-13.37-10.11a27.55,27.55,0,0,1,5.55-.24c1.83,0,3.66,0,5.5,0Z" style="fill:#fff"/><path d="M397.07,300.79l-13.14-9.22-13.09,9.18-.34-.26c1.39-5.21,3.23-10.29,4.74-15.63l-13-9.76.13-.45c5.25-.19,10.51,0,16-.12,1.79-5.09,3.58-10.17,5.53-15.69.4,1,.64,1.43.82,1.93,1.42,4.05,2.82,8.11,4.24,12.17.56,1.62.57,1.63,2.26,1.63h12.51a6,6,0,0,1,1.91.27c-4.23,3.52-8.62,6.75-13,10.13,1.62,5.22,3.21,10.38,4.81,15.54Z" style="fill:#fff"/><path d="M429.52,300.52l4.85-15.64L421,274.8c.92-.11,1.42-.21,1.92-.22h14.57c1.81-5.14,3.59-10.21,5.38-15.27h.46c1.76,5,3.52,10.05,5.36,15.28h16l.17.46L451.71,285c1.61,5.18,3.19,10.28,4.87,15.74a23.2,23.2,0,0,1-4.65-2.91c-1.52-1-3-2.1-4.5-3.15L443,291.58l-13.14,9.22Z" style="fill:#fff"/><path d="M392.19,516.92V514.7q0-51.26,0-102.52a3,3,0,0,0-2.08-3.27c-2.55-1.1-5-2.44-7.5-3.64a1.71,1.71,0,0,1-1.17-1.72c0-5.7,0-11.39,0-17.09a2.47,2.47,0,0,1,.11-.54c1.41-.44,29.09-.63,34.15-.21q15.77,48.42,31.59,97.06l.39-.07c0-.53.11-1.07.11-1.6q0-34.56,0-69.1a2.73,2.73,0,0,0-1.63-2.83c-2.58-1.34-5.08-2.82-7.62-4.26V386.09c1.34-.44,39.88-.54,42.11-.1,0,.52.12,1.07.12,1.62,0,5.19,0,10.38,0,15.57a2.48,2.48,0,0,1-1.44,2.56c-2.17,1.16-4.24,2.51-6.39,3.72a1.86,1.86,0,0,0-1.12,2c.05.56,0,1.14,0,1.71V561a13.58,13.58,0,0,1-1.53-.25c-6.54-1.94-13.07-3.94-19.63-5.81-1.29-.37-1.59-1.25-1.94-2.27q-8.37-24.79-16.76-49.59-7.23-21.37-14.46-42.76c-.19-.56-.44-1.09-.66-1.64l-.39.08v1.82q0,29.52,0,59a3.56,3.56,0,0,0,1.62,3.31c2.68,1.92,5.24,4,7.87,6a2.12,2.12,0,0,1,1,1.86c-.05,5.82,0,11.64,0,17.46a9.13,9.13,0,0,1-.15,1l-45.07-11.48V521Z"/><path d="M490.29,565V549c.52-.24,1.07-.53,1.64-.77,2.39-1,4.78-2,7.19-2.94a1.4,1.4,0,0,0,1.07-1.55c0-.5,0-1,0-1.52V412.52a3.62,3.62,0,0,1,0-.57,2.44,2.44,0,0,0-1.72-2.92c-2.37-1-4.63-2.32-7-3.47a1.74,1.74,0,0,1-1.19-1.72c0-5.75,0-11.51,0-17.27a4.58,4.58,0,0,1,.18-.84h77.73c.38,1.3.53,35.72.16,38.6-1.35.36-14.34.45-17,.1q-2.54-7.79-5.16-15.81H526.59c-.45,1.44-.54,43.07-.09,45.22a12.69,12.69,0,0,0,1.42.13c3.92,0,7.84,0,11.76,0a2.54,2.54,0,0,0,2.49-1.28c1.32-2.08,2.79-4.07,4.13-6.14a2.39,2.39,0,0,1,2.3-1.27c3.4.07,6.8,0,10.34,0v40H547.08c-1.57-2.26-3.21-4.58-4.81-6.93a2,2,0,0,0-1.83-1.07c-4.36.05-8.73,0-13.09,0a8.84,8.84,0,0,0-1.16.18v2.05q0,35.33,0,70.63a4.37,4.37,0,0,0,1.12,3.08c2.4,2.77,4.75,5.6,7.06,8.44a3.26,3.26,0,0,1,.81,1.82c.06,5.94,0,11.89,0,17.73a2,2,0,0,1-.22.22.41.41,0,0,1-.18.05,1.44,1.44,0,0,1-.37-.05l-42.81-16C491.21,565.43,490.82,565.24,490.29,565Z"/><path d="M613.86,523.56l19.57-5.3c1.24-9.9,2.47-19.61,3.69-29.28,1.45-.42,16-.5,18.29-.11v49.19l-79,21.09c-.06-.62-.14-1.1-.15-1.57,0-5.51,0-11,0-16.52a2.73,2.73,0,0,1,1.13-2.41c2.87-2.28,5.64-4.69,8.54-6.93a3.59,3.59,0,0,0,1.51-3.2q-.06-50,0-100c0-5.44-.05-10.88,0-16.33a2.69,2.69,0,0,0-1.72-2.93c-2.63-1.23-5.16-2.67-7.74-4V385.88h44.7a12.85,12.85,0,0,1,.16,1.48c0,5.44,0,10.88,0,16.32a2.2,2.2,0,0,1-1.33,2.23c-2.18,1.16-4.29,2.43-6.46,3.61a1.81,1.81,0,0,0-1.16,1.94c0,.31,0,.63,0,.94V523.56Z"/><path d="M494,284.66l3.34-5.24A46.86,46.86,0,0,1,518,289.33l-3.45,5A47.31,47.31,0,0,0,494,284.66Z"/><path d="M526.24,278.45l-3.8,4.83a48.62,48.62,0,0,0-20.64-10c1.3-1.55,2.36-2.94,3.57-4.16a2.1,2.1,0,0,1,1.74-.18c2.65.81,5.32,1.58,7.88,2.64A43.52,43.52,0,0,1,526.24,278.45Z"/><path d="M535.22,268.51l-4,4.21a48.41,48.41,0,0,0-20-9.73c1.76-1.48,3.17-2.72,4.65-3.87a1.61,1.61,0,0,1,1.23-.14,45.43,45.43,0,0,1,17.77,9A2.23,2.23,0,0,1,535.22,268.51Z"/></g></svg>