<svg xmlns="http://www.w3.org/2000/svg" xmlns:xlink="http://www.w3.org/1999/xlink" viewBox="0 0 1008 810"><defs><clipPath id="clip-path"><rect x="145.99" y="259.66" width="716.03" height="304.31" style="fill:none"/></clipPath></defs><g id="Layer_12" data-name="Layer 12"><g style="clip-path:url(#clip-path)"><polygon points="259.75 353.81 259.75 318.43 236.82 353.81 231.34 353.81 208.77 318.43 208.77 353.81 204.14 353.81 204.14 312.26 210.42 312.26 234.16 349.45 258.1 312.26 264.38 312.26 264.38 353.81 259.75 353.81" style="fill:#fff"/><path d="M324.09,353.81h-5.43l27.46-41.55h5.32l27.13,41.55H373.2l-7.61-11.38h-34Zm27.08-33.73-2.55-4.2-2.56,4.2-12,18h29Z" style="fill:#fff"/><g style="clip-path:url(#clip-path)"><path d="M470.16,334.82l15.54,19h-5.91L465,335.4H437.7v18.41H433V312.26h32.29c10.7,0,15.12,4.63,15.12,11.39,0,5.47-2.56,10-10.22,11.17m-5.32-18.3H437.7v14.63h28.9c6.49,0,9-2.82,9-7.35s-3.3-7.28-10.75-7.28" style="fill:#fff"/><polygon points="583.62 353.81 555.41 333.54 547.43 338.07 547.43 353.81 542.7 353.81 542.7 312.26 547.43 312.26 547.43 333.23 583.3 312.26 590.53 312.26 559.46 330.88 590.59 353.81 583.62 353.81" style="fill:#fff"/><path d="M670.36,354.45c-15.11,0-25.28-5.53-25.28-18.35V312.26h4.74V336.2c0,8.25,6.76,13.89,20.76,13.89,11.38,0,19.89-4.63,19.89-13.14V312.26h4.74v24.42c0,11.71-9.58,17.77-24.85,17.77" style="fill:#fff"/><path d="M781.53,354.45c-18.31,0-26.55-4.57-28.26-13.83h5.16c1.34,7.08,8.94,9.47,23.31,9.47,15.11,0,20.33-3.19,20.33-7.82,0-7-11.23-7.56-22.72-8.3-12.14-.8-24.59-1.76-24.59-10.54,0-6.44,6.39-11.86,24.59-11.86,17.34,0,24.95,6,26.65,12.5h-5.37c-1.55-4.63-8.09-8.09-21.55-8.09-13.78,0-19.42,2.72-19.42,7.14,0,5.58,10.43,6,21.49,6.7,12.56.85,25.92,2.18,25.92,12.13,0,7.93-7.24,12.5-25.54,12.5" style="fill:#fff"/><polygon points="258.84 438.94 222.65 407.01 222.65 438.94 202.57 438.94 202.57 383.52 224.07 383.52 259.41 414.67 259.41 383.52 279.28 383.52 279.28 438.94 258.84 438.94" style="fill:#fff"/><path d="M413.22,393.1c5,4.82,7.17,10.57,7.17,17.81,0,7.45-2.49,13.41-7.1,17.95-7.31,7.45-20.36,10.93-37.68,10.93-17,0-29.73-3.76-37.32-11.07a23.65,23.65,0,0,1-7.46-18,22.18,22.18,0,0,1,7-16.81c8.23-8.23,20.72-11.92,37.75-11.92,17.24,0,29.74,3.54,37.61,11.07M399.17,411c0-6.25-6-13.34-23.7-13.34-16.89,0-23.42,6.95-23.42,13.34,0,7.09,6.88,13.48,23.49,13.48,16.46,0,23.63-6.39,23.63-13.48" style="fill:#fff"/><polygon points="514.8 398.06 514.8 438.94 493.51 438.94 493.51 398.06 464.42 398.06 464.42 383.52 543.9 383.52 543.9 398.06 514.8 398.06" style="fill:#fff"/><path d="M673.37,422.76c-5.11,10.93-17.74,17-41.65,17-20.79,0-33.43-5.47-39.46-13.84a25.29,25.29,0,0,1-4.47-14.83A23.74,23.74,0,0,1,592.05,397c6.39-8.73,19.09-14.55,40-14.55,26.54,0,37.19,9.3,41.44,18a21.47,21.47,0,0,1,1.71,6.59H653.22a6.93,6.93,0,0,0-1.42-2.48c-2.41-3-8.94-6.1-19.94-6.1-10.36,0-18.31,2.62-21.29,7.73a9.75,9.75,0,0,0-1.21,5.11,9.43,9.43,0,0,0,1.28,5c3.41,5.46,12.28,7.66,21.22,7.66,9.79,0,17.6-1.42,20.72-6.17a4.65,4.65,0,0,0,.78-2.2h21.93a31.1,31.1,0,0,1-1.92,7.24" style="fill:#fff"/><polygon points="784.68 438.94 784.68 419.07 747.57 419.07 747.57 438.94 726.77 438.94 726.77 383.52 747.57 383.52 747.57 403.31 784.68 403.31 784.68 383.52 805.47 383.52 805.47 438.94 784.68 438.94" style="fill:#fff"/><path d="M236.42,499.41H209.36v14h-4.87V470.19H236.7c13.23,0,18.21,5.09,18.21,14.77,0,10.74-6.87,14.45-18.49,14.45m-.11-24.8H209.36V495H236.2c11.12,0,13.73-3.6,13.73-10.13s-3.32-10.24-13.62-10.24" style="fill:#fff"/><polygon points="293.56 513.41 293.56 470.19 342.59 470.19 342.59 474.78 298.38 474.78 298.38 489.22 341.65 489.22 341.65 493.76 298.38 493.76 298.38 508.76 343.09 508.76 343.09 513.41 293.56 513.41" style="fill:#fff"/><path d="M421.25,493.65l16.16,19.76h-6.14l-15.44-19.15H387.5v19.15h-4.93V470.19h33.59c11.12,0,15.72,4.81,15.72,11.84,0,5.7-2.66,10.4-10.63,11.62m-5.53-19H387.5v15.22h30c6.76,0,9.36-2.93,9.36-7.63s-3.43-7.59-11.18-7.59" style="fill:#fff"/><path d="M500.08,514.07c-19,0-27.61-4.76-29.38-14.39h5.37c1.38,7.36,9.29,9.85,24.23,9.85,15.72,0,21.14-3.32,21.14-8.13,0-7.25-11.67-7.86-23.63-8.63-12.61-.83-25.56-1.83-25.56-11,0-6.7,6.64-12.34,25.56-12.34,18,0,26,6.19,27.73,13H520c-1.61-4.81-8.41-8.41-22.41-8.41-14.33,0-20.2,2.82-20.2,7.42,0,5.81,10.85,6.25,22.36,7,13.06.89,26.94,2.27,26.94,12.61,0,8.25-7.52,13-26.56,13" style="fill:#fff"/><path d="M592,514.07c-19,0-27.61-4.76-29.38-14.39H568c1.38,7.36,9.29,9.85,24.23,9.85,15.72,0,21.14-3.32,21.14-8.13,0-7.25-11.67-7.86-23.63-8.63-12.61-.83-25.56-1.83-25.56-11,0-6.7,6.64-12.34,25.56-12.34,18,0,25.95,6.19,27.73,13h-5.59c-1.61-4.81-8.42-8.41-22.41-8.41-14.34,0-20.2,2.82-20.2,7.42,0,5.81,10.85,6.25,22.36,7,13.06.89,26.94,2.27,26.94,12.61,0,8.25-7.52,13-26.56,13" style="fill:#fff"/><path d="M714.74,491.71c0,14.72-12.23,22.36-30.71,22.36s-30.72-8.41-30.72-22.41,11.62-22.3,30.77-22.3c20.7,0,30.66,9,30.66,22.35m-5,0c0-10.4-8.19-17.7-25.73-17.7-17.16,0-25.68,7.19-25.68,17.7,0,11.07,10.57,17.82,25.73,17.82,15.44,0,25.68-6.64,25.68-17.82" style="fill:#fff"/><polygon points="798.05 513.41 757.76 476.44 757.76 513.41 752.89 513.41 752.89 470.19 758.48 470.19 798.93 507.38 798.93 470.19 803.58 470.19 803.58 513.41 798.05 513.41" style="fill:#fff"/></g></g></g></svg>