<svg xmlns="http://www.w3.org/2000/svg" viewBox="0 0 1008 810"><g id="Riot_Games" data-name="Riot Games"><path d="M387.2,325.12c-.64,6.73-1.21,13-1.84,19.24q-2.81,28.22-5.64,56.41c-1.38,13.79-2.8,27.58-4.12,41.37-.2,2.12-.8,3.41-3.22,3.39-9.94-.08-19.88-.07-29.82-.11a9.8,9.8,0,0,1-1.83-.5c-2.45-28.57-4.08-57.42-6.51-86.15-3-.25-3.06,1.47-3.18,3.23q-.84,12.36-1.71,24.72-1.87,26.8-3.77,53.62c-.1,1.51-.34,3-.5,4.4-3.55,1-21.55,1.11-26.07.18-.3-1.47-.69-3.08-1-4.7q-5.37-31.46-10.75-62.91c-.23-1.33.35-3.7-1.87-3.58-2.48.15-1.67,2.54-1.66,4q.3,30.87.72,61.75c0,1.77,0,3.55,0,5.57-1.76.19-3,.41-4.19.42q-8.19.06-16.38,0c-4.24,0-4.27,0-5.26-4.25Q252.7,416.15,246.79,391c-.35-1.48-.78-2.94-1.18-4.47-1.89-.45-2.89.12-2.85,2,.06,2.24.2,4.48.35,6.71q1.54,22.43,3.09,44.83c.1,1.52,0,3,0,4.48-3.25,1.27-19.05,1.45-23.75.23q-8.75-40.46-17.65-81.58c1.59-.84,2.9-1.59,4.27-2.23q53.29-25.31,106.59-50.62a11.64,11.64,0,0,1,8.42-.94c19.54,4.92,39.13,9.63,58.71,14.43C384.13,324.14,385.44,324.59,387.2,325.12Z" style="fill:#fff"/><path d="M513.46,381.62c3.8,9.2,7.51,18.08,11.15,27,3.56,8.75,7.49,17.35,10.82,26.74H500.84c-3-13.67-6-27.39-9.06-41.46-1.37.59-2.39.95-3.33,1.46-5.16,2.8-10.27,5.71-15.48,8.42a4.68,4.68,0,0,0-2.82,4.62c-.1,7.42-.37,14.83-.62,22.24,0,1.5-.25,3-.4,4.72H438.22c2.86-31.48,6.28-62.55,9.21-94H429c-.84-3,.84-20.49,2.49-25.92h87.33c.52,2.09,1.07,4.08,1.51,6.09q5.07,23.39,10.1,46.76c.76,3.54.74,3.58-2.31,5.28C523.33,376.21,518.56,378.81,513.46,381.62Zm-42.41-5.39,28.32-13.48c-1-7.95-1.9-15.51-2.8-22.93-6.09-.64-21.57.16-24.58,1.3C471.69,352.39,471.38,363.82,471.05,376.23Z" style="fill:#fff"/><path d="M684.8,315.5c1.93,40.05,3.84,79.68,5.79,119.9-6.35.48-12.31.19-18.26.24s-12,0-18,0H600.43c-1-4.14,1.77-115,3-120.15ZM630.39,340c-1.11,7.8,0,66,1.34,69.75,8.86-.46,17.89,0,26.73-1.05,1-5.93,1-64.42,0-67.78Z" style="fill:#fff"/><path d="M759.5,434.8c-3.45,1-26.18,1.23-31.87.36-1-15.58-1-31.33-1.54-47s-.89-31.59-1.34-48l-24.88-1.22c-1.15-3.58-1.61-18.94-.79-23.11,3.08-.82,74.33-1.06,80-.2,1.5,8.32,2,16.89,3.09,25.87-10.69.75-20.94-.67-31.82-.52C753.18,372.52,756.65,403.68,759.5,434.8Z" style="fill:#fff"/><path d="M549.5,435q1.2-59.76,2.37-119c3.62-1.11,22.13-1.24,26.72-.19,1,39.61,2.13,79.36,3,119C577.82,435.83,554.41,436,549.5,435Z" style="fill:#fff"/><path d="M292,456.5l81.84,4.26c-1.19,12-2.33,23.45-3.5,35.29a29.92,29.92,0,0,1-3.56-.42l-63.51-15.81c-1.81-.45-3.41-.93-4.16-3-2.22-6-4.6-12-6.88-18A11.86,11.86,0,0,1,292,456.5Z" style="fill:#fff"/><path d="M599.69,474.66c4.91-5.38,9.24-10,13.35-14.71a7.24,7.24,0,0,1,6.54-2.86c2.47.18,5,0,8,0,1.19,13.16,2.34,25.87,3.52,38.94H616.71c-.29-7.5-.57-14.94-.89-23.39l-15.91,14.59-15.84-14.51c-.36,8.22-.68,15.63-1,23.31h-14.2c.75-12.9,2.18-25.58,3.34-38.83,3.94,0,7.54-.16,11.09.1,1,.08,2.12,1.25,3,2.13,3.54,3.78,7,7.63,10.48,11.48C597.63,472,598.45,473.1,599.69,474.66Z" style="fill:#fff"/><path d="M481.76,496.08h-49.4c.85-13,2.44-25.53,3.63-38,3.17-1.15,36.31-1.53,43.46-.52.19,2.43.4,5,.64,8-10.8,1.1-21.37.82-32.26,1.62-.32,6.41-.62,12.51-.91,18.52,3.38,1.07,17.51,1.42,22.18.58v-5l-10.94-.77c.13-2.57.23-4.84.36-7.47a168.93,168.93,0,0,1,22-.63C480.93,480.39,481.33,488,481.76,496.08Z" style="fill:#fff"/><path d="M551.37,496.32H539.1c-1.61,0-2.07-1.15-2.36-2.46-.48-2.16-1-4.31-1.51-6.7H516c-.71,2.83-1.42,5.64-2.24,8.87-4.45.71-9,.18-14.09.32.58-4.87,2.1-9,3.19-13.25s2.24-8.38,3.38-12.56,2.35-8.6,3.53-12.92a17.42,17.42,0,0,1,2.69-.46c8.53,0,17.06,0,25.58-.07,2.32,0,3.52.69,4.14,3.07C545,471.11,548.05,482,551,493A24.44,24.44,0,0,1,551.37,496.32Zm-31.3-29.89-2.16,10.82h15.4c-.81-3.94-1.51-7.4-2.21-10.82Z" style="fill:#fff"/><path d="M717.13,495.9c.24-2.65.46-5.07.72-8l33.35-1.39c.87-2.65-.44-3.4-2.54-3.75-6.48-1.08-13-2.22-19.43-3.37-3.14-.56-6.27-1.18-9.92-1.87.82-6.8,1.6-13.25,2.36-19.54,3.39-1,34.1-1.28,39.78-.34.22,2.37.46,4.9.75,8-5.27.19-10,.32-14.71.53s-9.17.5-13.69.76c-.41,3.59-.44,3.73,2.4,4.25,7.3,1.32,14.62,2.51,21.92,3.76,1.65.29,3.28.65,5.39,1.07q1,9.83,2,19.43C762.2,496.53,724.32,496.87,717.13,495.9Z" style="fill:#fff"/><path d="M696,465.65l-29.22.77v5.84l21.78.33v8.25c-3.48.1-6.92.23-10.35.28s-7,0-10.79,0v5.66l29.32.95c.14,2.81.27,5.37.39,7.81-3.77,1-39.91,1.12-44.32.11.41-12.54.81-25.18,1.21-37.68,3.58-1.05,37.5-1.2,42-.24Z" style="fill:#fff"/></g></svg>