<svg id="Skrillex" xmlns="http://www.w3.org/2000/svg" viewBox="0 0 1008 810"><path d="M451.25,451.62H431.42V449c0-10.52.05-21.05-.07-31.57a6.33,6.33,0,0,0-1.55-3.72c-1.9-2.16-4.11-4.05-6.48-6.33,2.72-2.72,5.16-5.35,7.81-7.74a6.6,6.6,0,0,0,2.27-5.45c-.08-25.31,0-50.61,0-75.92v-3h89.71c0,2.84,0,5.7,0,8.56,0,3.45.81,7.27-.41,10.24s-4.46,4.91-6.85,7.3l-41.15,41c-.66.67-1.3,1.36-1.84,1.93l71.54,71.49-13.84,14-72.35-72.56c-2.31,2.38-4.47,4.48-6.45,6.75a4.21,4.21,0,0,0-.45,2.51q0,21,0,41.93Zm2.49-76.69L492.5,336.2H453.74Z" style="fill:#fff"/><path d="M315.25,499.44V315.29h21.91v61.9l.67.46,65.51-65.38L417.09,326,360,383l74.81,74.76L422.2,470.43l-74.49-74.94c-3.18,3.23-5.75,6.22-8.71,8.75s-3.79,5.2-3.75,9c.2,19,.1,38.08.06,57.13a5.14,5.14,0,0,1-.66,2.91C328.36,481.86,322,490.39,315.25,499.44Z" style="fill:#fff"/><path d="M232.59,405.52h79.2c0,6.35,0,12.44-.07,18.53,0,.77-.91,1.62-1.56,2.27q-36.5,36.48-73,72.91l-22,22c-.62.61-1.25,1.2-1.67,1.6l-15.17-15,83.65-83.59H186.88L296.61,314.62l12.83,12.82-77.07,77.43Z" style="fill:#fff"/><path d="M820.55,502.78,709.29,391.1,677.91,423c-4.51-4.51-8.63-8.64-12.87-12.87l31-30.91-52.55-52.48L658.36,313l53.29,51.31,49.74-49.73,12.77,12.78-50.11,50.08c.75.79,1.39,1.49,2.05,2.15q38.56,38.51,77.1,77a13.61,13.61,0,0,1,3,4.77c5,13.59,9.94,27.22,14.89,40.85Z" style="fill:#fff"/><path d="M706.08,519.66,693.63,532.1c-4-3.8-8.09-7.72-12.18-11.66l-43.89-42.3c-8.62-8.31-17.22-16.63-25.91-24.86a4.84,4.84,0,0,1-1.66-3.94q.07-27,0-54,0-38.57,0-77.13a5.16,5.16,0,0,1,1-3.22q24.81-26.43,49.77-52.73a9.68,9.68,0,0,1,.86-.79l13,13.1c-.28.3-.85.94-1.45,1.55Q653,296.42,632.65,316.68a5.1,5.1,0,0,0-1.66,4c.06,16.63,0,33.26,0,49.89v2.89h32.78v16.86H631.17c-.06,1.1-.14,1.94-.14,2.79,0,16.46,0,32.93,0,49.4a5.15,5.15,0,0,0,1.68,4q35.85,35.73,71.65,71.55C704.89,518.6,705.5,519.13,706.08,519.66Z" style="fill:#fff"/><path d="M581.39,295.21h21.25v2.71q0,85.93,0,171.86a10.48,10.48,0,0,1-1.08,4.53c-6.36,12.69-12.83,25.33-19.27,38-.27.54-.58,1.05-.86,1.55Z" style="fill:#fff"/><path d="M555.5,493.13v-214c0-3.3,0-3.35,3.34-3.37,5.76,0,11.52,0,17.67,0v2.57q0,87.48.06,175a12.32,12.32,0,0,1-2,6.25q-9.18,16.32-18.36,32.65A8.13,8.13,0,0,1,555.5,493.13Z" style="fill:#fff"/><path d="M550.33,251.1V424.9H529.44c0-3.08,0-6,0-9,.13-13.64.33-27.28.4-40.92.08-15.74,0-31.49.09-47.23q.1-19.26.45-38.51a8.81,8.81,0,0,1,1.07-3.82c6.06-11.32,12.2-22.6,18.32-33.89C549.85,251.43,550,251.35,550.33,251.1Z" style="fill:#fff"/></svg>