<svg xmlns="http://www.w3.org/2000/svg" viewBox="0 0 1008 810"><g id="TCS"><path d="M574.48,380.45c-.28.61-.6,1.21-.83,1.83-2.36,6.51-4.73,13-7,19.54a5.2,5.2,0,0,0,.06,2.38c.19,1.32-.38,1.88-1.64,1.85a25.51,25.51,0,0,1-4.72-.2,3.92,3.92,0,0,1-2.41-1.77c-1.67-3.35-3.12-6.81-4.63-10.23a4.79,4.79,0,0,0-1.09-1.78c-.66,2.45-1.52,4.87-2,7.37-1,5.89-1.66,11.86-2.81,17.73-1.78,9.14-3.86,18.23-5.8,27.34-.61,2.87-1.21,5.74-1.77,8.62a2.58,2.58,0,0,1-2.94,2.37c-1.51-.05-3,0-4.67,0,.06-1.09.22-2.35.18-3.6-.46-18.28,2.5-36.24,4.71-54.29,1.09-8.85,1.33-17.79,2.06-26.68.31-3.68.81-7.34,1.41-11,.41-2.48,1.11-2.7,3.62-2.72a18.2,18.2,0,0,1,8.24,1.34c.59.28,1.34.78,1.5,1.33.77,2.65,1.43,5.35,2,8.05s.9,5.65,1.68,8.39c1.26,4.39,2.79,8.71,4.22,13.06.14.42.32.82.67,1.7,1-3.45,1.93-6.44,2.77-9.45,3.5-12.55,6.93-25.12,10.5-37.65a74.3,74.3,0,0,1,3.29-8.7,4.85,4.85,0,0,1,5.45-3,45.17,45.17,0,0,1,9.22,2.07c5.23,2,5.05,3,4.16,7.3-2.39,11.61-4.91,23.2-7,34.86-1.93,10.56-3.39,21.2-5.09,31.81q-1.76,11-3.57,22.05c-1,6-2,12-2.95,18-.24,1.54-1.07,2-2.52,2.07a36.83,36.83,0,0,0-5.94.63c-1.64.34-2-.25-1.89-1.68.25-4,.4-8,.7-12,.62-8.41,1.24-16.83,2-25.24.94-10.4,2-20.79,3-31.18a4,4,0,0,0,0-.49Z" style="fill:#fff"/><path d="M663.82,371.22c1.19-1.71,2.35-3.44,3.58-5.12q10.83-14.78,21.71-29.52a44.62,44.62,0,0,1,4.43-5c1.84-1.82,6.39-1.34,7.52.95.65,1.32,1.63,1.07,2.4,1.07,2.4,0,3.25,1,2.74,3.37A29.64,29.64,0,0,1,700,349.66c-9.18,11.22-18.56,22.28-27.84,33.41-2.33,2.8-4.59,5.65-6.87,8.49a4.67,4.67,0,0,0-.56,5.15c5,11,8.21,22.48,11.5,34,1.2,4.21,2.67,8.35,3.8,12.58.69,2.6,1,5.3,1.46,8,.19,1.08-.28,1.52-1.36,1.48-1.64-.07-3.28-.09-4.92-.09-2.33,0-4.67,0-7,.09-1.31.06-1.59-.84-1.94-1.68-1.85-4.38-3.77-8.73-5.44-13.17-2.15-5.71-4.08-11.5-6.11-17.25a1.51,1.51,0,0,0-.74-.88l-1.41,6.41c-1.07,4.93-2.12,9.87-3.25,14.78-.11.51-.75.88-1.06,1.36s-.94,1.26-.79,1.68c1,2.86-.28,5.47-.65,8.18a1.44,1.44,0,0,1-1.63,1.43c-2.32,0-4.64,0-7.16,0,.08-1.19.07-2.12.2-3,1.81-12.84,3.7-25.66,5.43-38.51s3.15-25.73,5-38.56c1.62-11.26,3.64-22.47,5.45-33.71.39-2.43.67-4.88,1-7.33.12-1.08.66-1.46,1.72-1.55a11.21,11.21,0,0,1,7.06,1.58,5.63,5.63,0,0,0,1.84.56c2.4.5,2.91.8,2.66,3.27q-1.11,11.2-2.64,22.35c-.56,4.16-1.47,8.27-2.22,12.41Z" style="fill:#fff"/><path d="M743.93,412.73c-.75,3.7-1.44,7-2.1,10.33-.88,4.39-1.81,5.11-6.28,5-1.63,0-3.28,0-4.91.13-2.19.15-3.08-.65-2.8-2.89.6-4.77,1.27-9.53,2-14.29,2.08-14.23,4.07-28.46,6.34-42.65,1.44-9,3.31-17.87,5-26.8,0-.22.06-.45.11-.88l-4-.57-.22-.49c.76-.42,1.52-.88,2.31-1.27,1.27-.62,2.56-1.22,3.88-1.76a2.67,2.67,0,0,1,1.66-.3c5.45,1.94,11.27,1.6,16.82,2.83,4.69,1,9.37,2.15,14,3.46,3.89,1.1,5.94,4,6.67,7.87.92,4.89.27,9.72-.55,14.52-1,5.72-2.26,11.39-3.17,17.11-1.2,7.53-6.21,11.37-12.82,13.77-1.93.7-3.91,1.28-5.88,1.87-1.15.35-1.43.93-1,2.09,1.16,2.94,2.1,6,3.35,8.89,4.94,11.57,7.43,23.9,11.36,35.79q1,3.09,2.1,6.16c.48,1.37.51,2.4-1.36,2.55-3.3.26-6.6.52-9.89.93a25.87,25.87,0,0,0-5.29,1.22c-1.57.54-2.26-.23-2.68-1.42-1.39-4-2.82-8-4-12-2.77-9.4-5.41-18.83-8.1-28.24A7.29,7.29,0,0,0,743.93,412.73ZM748.49,392l.5.39c2.41-1,4.79-2.06,7.22-3a8.19,8.19,0,0,0,5.55-7.27c1-9.38,2-18.77,2.7-28.17a24,24,0,0,0-1.17-7.92,5.24,5.24,0,0,0-2.6-2.87c-3-1.46-6.3-1.53-9.81-1.7A299.72,299.72,0,0,1,748.49,392Z" style="fill:#fff"/><path d="M545.93,325.38a37.71,37.71,0,0,0-13.32,10.68c-13.26,16-18,34.59-17.13,54.95.34,8,3.14,15.36,5.87,22.7,2.51,6.77,5.56,13.33,7.11,20.42a27.76,27.76,0,0,1-5.23,23.61,14.43,14.43,0,0,1-12.54,6,117.43,117.43,0,0,1-13.52-1.18c-7.33-1.14-13.06-5.22-18.13-10.48-6.13-6.36-7.71-14.28-8.21-22.63-.09-1.51.47-2.34,2.16-2.09,2.24.34,4.51.53,6.73,1,.48.1.91,1,1.14,1.61,1.22,3.23,2.36,6.51,3.56,9.75,3.11,8.42,9.19,14.18,16.81,18.49,2.52,1.42,4.45,1,6.63-1.1,5.14-4.92,6.92-11,6.17-17.94-.58-5.37-2.8-10.26-4.92-15.16s-4.8-9.86-6.41-15c-3.65-11.77-6-23.72-4.12-36.24,1.79-12,5.25-23.34,11.5-33.75,4-6.62,8.48-12.86,14.93-17.36,3.88-2.72,8-4.95,12.83-5.47a11.88,11.88,0,0,1,4.87.27q6.94,2.24,13.74,5c3.88,1.55,5.81,4.75,5.17,8.82-.84,5.25-2,10.47-3.13,15.66a6.39,6.39,0,0,1-2,3.23c-.52.44-1.85.15-2.73-.1-2.17-.64-4.27-1.54-6.45-2.15-1.11-.3-1.22-.7-1.18-1.8.18-5.92.2-11.84.24-17.76A9,9,0,0,0,545.93,325.38Z" style="fill:#fff"/><path d="M474.33,385.55c.91-4.28,1.66-8.61,2.74-12.85q3.94-15.51,8.15-30.94c1.43-5.27,3.13-10.46,4.62-15.7.39-1.37,1.08-1.82,2.4-1.52,2.4.54,4.84,1,7.2,1.64a2.06,2.06,0,0,1,.88,1.74,119.33,119.33,0,0,1-2,12.67c-3.25,13.2-6.8,26.34-10.11,39.53-1.84,7.34-3.35,14.76-5.16,22.1-.87,3.52-2,7-3.19,10.41a2.33,2.33,0,0,1-1.67,1.31,102.43,102.43,0,0,1-10.37-.26,4.42,4.42,0,0,1-2.64-1.95c-3.3-5.06-4.64-10.85-5.94-16.64-.71-3.2-1.3-6.44-2-9.65a9.24,9.24,0,0,0-.57-1.36c-.82,2.64-1.56,4.83-2.16,7.06-2.89,10.7-5.79,21.4-8.59,32.13-.95,3.62-1.63,7.31-2.4,11-.49,2.33-1.54,2.69-3.76,2a13,13,0,0,0-5.09-.33c-2,.21-2.39.08-2.13-1.88,2-14.89,3.79-29.8,6.06-44.65,2.2-14.43,4.86-28.8,7.39-43.18.49-2.83,1.22-5.62,2-8.4.89-3.37,1.41-3.84,4.89-3.57,1.52.11,3,1,4.48,1.44a14.19,14.19,0,0,0,3.28.57,2.27,2.27,0,0,1,2.49,2.54c-.09,6.7,2.39,12.89,3.87,19.26,1.93,8.28,4.2,16.48,6.32,24.72.24.95.47,1.91.7,2.86Z" style="fill:#fff"/><path d="M294.24,424.87c-.59,8.51,1,16.69,3.24,24.82a18,18,0,0,0,4.94,7.94,1.61,1.61,0,0,0,2.56.14c3.71-3.13,5.88-7.27,7.72-11.62,1.46-3.45,2.89-6.93,4.17-10.46a2.8,2.8,0,0,1,3.39-2c3.31.44,6.61,1,9.9,1.57a1.64,1.64,0,0,1,1,1.17,9.46,9.46,0,0,1-.19,3.32c-2,6.75-3.95,13.51-8.42,19.23-3.28,4.19-7.3,6.32-12.7,5.53-5-.73-10-1.27-15-2.17-8.05-1.46-12.89-6.69-15.39-14.15s-3-15.26-2.64-23.13A185.54,185.54,0,0,1,286,375.58a168.32,168.32,0,0,1,12.36-28.33,88,88,0,0,1,16.38-21.67,40.78,40.78,0,0,1,12.74-8.39c3.4-1.39,6.74-1.8,10.26-.35,3.26,1.34,6.61,2.44,9.9,3.7a10.87,10.87,0,0,1,5.83,5.39,53,53,0,0,1,3.22,7.18c.63,1.91-.25,2.53-2.14,1.84-2.3-.85-4.62-1.68-6.88-2.64a4.55,4.55,0,0,1-1.65-1.53c-1.47-2-2.93-4-4.28-6-.7-1.08-1.33-1.13-2.46-.61-5.34,2.47-9.52,6.37-13.53,10.54-9.09,9.46-15.07,20.79-19.58,32.92s-8.28,24.72-10.07,37.67C295.19,411.76,294.84,418.33,294.24,424.87Z" style="fill:#fff"/><path d="M338.41,382.7l13.28.76c.58-2.52,1.23-5.35,1.87-8.19q3.57-15.87,7.14-31.76c.14-.62.4-1.22.56-1.84.39-1.5,1.09-2.36,2.87-2s3.7.37,5.51.73c.72.14,1.31.82,2,1.19a10,10,0,0,0,1.73.72,26.3,26.3,0,0,1,3.8,1.21,2.54,2.54,0,0,1,.93,1.89c.32,9.11-1.43,18-3.44,26.77-1,4.17-2.09,8.31-2.79,12.52-1.4,8.58-4.55,16.61-7.27,24.79-1.45,4.34-2.64,8.76-4.05,13.11-2.24,6.86-4.56,13.69-6.9,20.51a1.6,1.6,0,0,1-1.23.87c-2.91-.28-5.81-.63-8.69-1.15-.34-.06-.73-1.31-.66-2,.37-3.33.88-6.63,1.36-9.94l5.67-38.84c.15-1,.32-2.07.52-3.34-.71-.08-1.31-.18-1.92-.22-3.34-.21-6.7-.31-10-.63-1.22-.12-1.5.28-1.69,1.33q-2.14,11.5-4.38,23a52.3,52.3,0,0,1-1.45,5.8c-.84,2.63-2.33,3.39-5,2.84-1.61-.33-3.22-.67-4.85-.87-2.19-.27-3.39-1.2-3.42-3.41a31.09,31.09,0,0,1,.59-6.81c2.65-12.81,5.33-25.62,8.16-38.38,1.69-7.62,3.68-15.16,5.54-22.74.07-.28.17-.56.26-.84,1.25-3.78,2-4.15,5.75-2.76a14,14,0,0,1,3.07,1.22,3,3,0,0,1,1.21,2.17c-.23,3.56-.62,7.12-1.07,10.67-.94,7.56-2,15.12-2.94,22.68A6.87,6.87,0,0,0,338.41,382.7Z" style="fill:#fff"/><path d="M612.06,437.21c-3.17-.15-6.34-.28-9.51-.46-7-.4-11.29-4.76-11.07-11.73a157.24,157.24,0,0,1,1.4-16.66c1.32-9.52,2.63-19.07,4.61-28.47,1.94-9.16,3.59-18.46,7.45-27.1a32.84,32.84,0,0,1,3.86-6.47c2.7-3.53,6.81-4.3,10.81-3.93a123.53,123.53,0,0,1,17.52,2.87c5.69,1.38,8.37,5.65,8.32,11.56-.11,12.28-2.35,24.26-5,36.19-1.87,8.48-3.47,17-5.41,25.48a74.84,74.84,0,0,1-3.52,11.22,10.45,10.45,0,0,1-8.78,6.77c-3.54.44-7.11.67-10.67,1Zm-8.61-13.77a31.08,31.08,0,0,0,.87,5.59c.81,2.42,2.46,4.4,5.15,4.78a5.92,5.92,0,0,0,6.25-3.42,22.84,22.84,0,0,0,2.22-5.34c1.51-6.21,3-12.44,4.16-18.73,1.88-10,3.66-20,5.18-30,1-6.78,1.7-13.62,2.2-20.46.15-2-.74-4.19-1.34-6.24-.29-1-1.2-1.3-2.08-.52a71.48,71.48,0,0,0-5.81,5.3c-1.45,1.59-2.34,3.68-3.77,5.3a18.47,18.47,0,0,0-4.21,9.28c-2.16,12-4.58,23.95-6.62,36C604.6,411.06,604.16,417.28,603.45,423.44Z" style="fill:#fff"/><path d="M813.59,349.55c-1.05,1.94-2.16,3.85-3.15,5.83-4.36,8.73-4.47,17.9-2.3,27.15.78,3.33,2.37,6.48,3.57,9.73,1.47,3.95,3,7.89,4.33,11.9,2.12,6.43,1.15,12.73-1.18,18.93-1.12,3-2.49,5.71-5.47,7.28a15,15,0,0,1-8.76,1.27,86.78,86.78,0,0,0-8.77-.87c-9.87,0-15.61-6.21-18.37-14.07a35.14,35.14,0,0,1-2-12.63c.07-3.13.56-3.63,3.67-3.23,2.09.27,4.14.77,6.21,1.16s2.27,2.18,2.86,3.65c2.2,5.48,3.85,11.21,7.49,16,.89,1.16,1.9,2.23,2.87,3.33s1.57.84,2.45-.13c5.66-6.2,6.3-13.39,4.07-21.06-1.58-5.42-5.12-9.87-7.71-14.79-5.82-11.08-7.38-22.61-3.35-34.68,1.69-5.06,3.94-9.69,8.83-12.46,3-1.69,6-2.84,9.56-2,4.11,1,8.31,1.61,12.45,2.48,7.38,1.56,12,6,13.74,13.37,1,4,2.21,8,3.13,12.09.86,3.79.24,4.19-3.57,3.22-2.84-.72-5.75-1.11-8.59-1.8a3.75,3.75,0,0,1-2.33-1.46c-2-4-3.88-8.14-5.83-12.21-1-2-2-4-3.05-6Z" style="fill:#fff"/><path d="M395.47,393.27c-2.36.5-4.49.89-6.57,1.43a2.07,2.07,0,0,0-1.07,1.22c-4.85,13.84-9.71,27.68-14.45,41.56-2,5.86-2.51,6.22-8.76,4.69.84-4,1.71-8,2.51-12,1.51-7.59,2.93-15.19,4.48-22.78,4.27-20.93,8.86-41.79,14.76-62.33.79-2.76,1.77-5.43,4.33-7.27,1-.7,1.45-2.09,2.17-3.17a2.58,2.58,0,0,1,3.11-1.31c3.22.85,6.46,1.58,9.7,2.33,1.65.39,2.15,1.66,2.53,3.06,2.86,10.58,2.42,21.35,1.88,32.11-.31,6-.62,12.08-1.29,18.08-.94,8.46-2.19,16.88-3.39,25.31-.39,2.78-.81,2.89-3.66,2.26a24.39,24.39,0,0,0-4.67-.53c-1.42,0-2-.52-2-2q.23-9.15.39-18.3C395.49,395,395.47,394.29,395.47,393.27Zm.38-20.52q-2.53,7.53-5.17,15.31c1.58-.1,2.86-.11,4.12-.29.39,0,1-.57,1-.88C395.87,382.16,395.85,377.43,395.85,372.75Z" style="fill:#fff"/><path d="M178.08,401.48l-5.83-2.35a18,18,0,0,0-1.93-.82c-2.67-.72-2.63-.7-2.7-3.53-.24-10.57,1.26-21,3.34-31.26s4.4-20.3,6.61-30.44c.1-.45.17-.91.31-1.7-2.28.42-4.36.85-6.47,1.17-6.21.95-12.42,1.88-18.64,2.74-2.15.3-2.83-.81-2.12-2.85.12-.36-.6-1.1-1.07-1.53-.27-.26-1.05-.13-1.17-.37a39.29,39.29,0,0,1-2-4.86c-.47-1.55.76-2.06,1.94-2.37,4.71-1.27,9.39-2.69,14.15-3.72q17.22-3.7,34.53-7.09c8.93-1.74,17.91-3.27,26.89-4.8a55.14,55.14,0,0,1,6.31-.5,3,3,0,0,1,3.3,2.32c.88,2.85,1.74,5.71,2.62,8.56.34,1.08-.3,1.32-1.16,1.47-5.79,1-11.59,1.91-17.36,3-6.68,1.3-13.34,2.75-20,4.22a2.55,2.55,0,0,0-1.45,1.33c-4.61,10.14-7.4,20.9-10.11,31.63-2.55,10.05-4.53,20.25-6.62,30.41-.6,2.92-.69,5.94-1,8.91C178.37,399.76,178.24,400.44,178.08,401.48Z" style="fill:#fff"/><path d="M697.94,357.93l-1.93-1c1.11-2,3.14-2.12,4.77-2.43,4.14-.8,8.34-1.28,12.53-1.76a10.24,10.24,0,0,1,3.47.35q5.91,1.43,11.77,3a17.14,17.14,0,0,1,2.69,1.27,3.29,3.29,0,0,1-3.3,1.92c-6.05.22-12.1.41-18.14.62l-1.24.07c.09,1.82.16,3.54.25,5.27.42,8.51-.94,16.86-2.14,25.23-.42,2.9-.78,5.81-1.24,8.71-.19,1.17.17,1.47,1.33,1.61,4.6.57,9.18,1.26,13.76,2a12.5,12.5,0,0,1,2.19.8c-.29,1.57-1.5,1.54-2.45,1.52-3.64-.06-7.28-.24-10.92-.38a14.46,14.46,0,0,1-2.47-.1c-1.74-.37-2.29.3-2.56,2-1.55,9.86-3.23,19.69-4.86,29.53a7.17,7.17,0,0,0,0,1.07c.54,0,1,0,1.55,0,8.11-.34,16.22-.49,24.3.59a6.88,6.88,0,0,1,2.26.77,6.21,6.21,0,0,1,1.23,1.18c-.51.34-1,.87-1.54,1a33.49,33.49,0,0,1-4.36.53c-5.46.33-10.91.77-16.37.89-5,.12-10.1-.1-15.14-.2-1.88,0-3.77-.06-5.63-.28-2.71-.31-3.35-1-3.07-3.65.74-7.17,1.34-14.38,2.52-21.48q2.68-16.06,6.12-32c1.91-8.76,4.38-17.39,6.6-26.08A3,3,0,0,0,697.94,357.93Z" style="fill:#fff"/><path d="M210.2,362c-2.12.24-4.1.39-6,.74-.42.08-.87.87-1,1.41q-4.26,16.33-8.41,32.7c-.42,1.63-1.41,2-2.88,1.14a5.64,5.64,0,0,0-2.19-.45c-1.84-.17-3.7-.18-5.5-.5-.38-.06-.83-1.23-.78-1.86.34-4.43.42-8.93,1.32-13.26,2.49-11.94,5.32-23.81,8-35.7.74-3.2,1.53-6.38,2.37-9.56.75-2.88,1.22-3.06,4.18-2.38,3.41.78,6.84,1.5,10.28,2.13,1.64.29,1.63,1.17,1.24,2.41q-2.46,7.91-4.89,15.81c-.54,1.77-1,3.56-1.6,5.61,2.19-.44,4.1-.73,5.93-1.26.48-.14.91-1,1-1.62,1.67-7.44,3.25-14.9,4.91-22.35.6-2.68,1-2.87,3.64-2.26,1.54.36,3.07.76,4.62,1.08a1.43,1.43,0,0,1,1.31,1.86c-.49,2.77-.91,5.55-1.52,8.29-1.6,7.22-3.29,14.41-5,21.61-2.6,11.21-5.23,22.41-7.81,33.61a46.09,46.09,0,0,0-.89,5.21c-.13,1.19-.71,1.47-1.75,1.33-1.8-.23-3.61-.35-5.38-.72a1.78,1.78,0,0,1-1-1.44,77.84,77.84,0,0,1,1-9.79c2.05-10.18,4.33-20.32,6.51-30.48C210.07,362.89,210.11,362.5,210.2,362Z" style="fill:#fff"/><path d="M417.27,439.44c-2-.12-3.84-.16-5.68-.42-.35,0-.83-1-.82-1.47,0-2.75.09-5.51.33-8.25.61-6.66,1.17-13.33,2-20,1.29-10.12,2.88-20.2,4.23-30.32,1.73-13.08,3.31-26.18,5-39.26.29-2.2,1-4.34,1.46-6.51a1.82,1.82,0,0,1,2.4-1.48c2.22.48,4.43,1.05,6.63,1.66a2.45,2.45,0,0,1,1.77,2.72c-.12,5.33.07,10.69-.5,16-.82,7.68-2,15.33-3.38,22.94-1.7,9.7-3.53,19.38-5.6,29-2.22,10.31-4.8,20.54-7.19,30.81C417.65,436.3,417.53,437.76,417.27,439.44Z" style="fill:#fff"/><path d="M230.51,333.26l-2.94-1.1a11,11,0,0,1,2.68-1.64c7.44-1.69,14.89-3.38,22.38-4.88,5.13-1,9.86,1,14.64,2.42.44.13.78.6,1.34,1-.55.26-.85.52-1.14.52-6.09.08-11.76,2.23-17.58,3.59-1.95.45-3.92.8-5.85,1.32a2.05,2.05,0,0,0-1.3,1.11c-1.82,7.23-3.55,14.47-5.3,21.71a3.22,3.22,0,0,0,.09.82c4.94-1.18,9.89-2.65,15.3-.35-1.39.37-2.42.66-3.46.91-3.19.78-6.35,1.74-9.58,2.26s-3.35.3-4.14,3.54c-1.13,4.6-2.14,9.22-3.28,14.17,4.89-.83,9.51-1.37,14.1-.28l.08.47a17.39,17.39,0,0,1-1.82.57c-3.69.72-7.38,1.46-11.09,2.09-1.4.23-2.29.74-2.33,2.28,0,1.81-1.13,2-2.63,1.77-2.41-.42-4.85-.71-7.25-1.18a1.77,1.77,0,0,1-1.13-1.22,18.58,18.58,0,0,1,.1-4.89c1.64-7.68,3.41-15.33,5.16-23,1.58-7,3.2-14,4.79-20.93C230.43,334.05,230.45,333.71,230.51,333.26Z" style="fill:#fff"/></g></svg>