<svg xmlns="http://www.w3.org/2000/svg" viewBox="0 0 1008 810"><defs><style>.cls-1{fill:#fff;}</style></defs><g id="Layer_12" data-name="Layer 12"><path class="cls-1" d="M426.05,398.28c0-26.6.06-53.21-.07-79.81,0-3.37,1.85-3.19,4-3.19l53.45,0c24.5,0,49-.28,73.5.11,19.89.32,37.24,7.72,52.08,20.93A79.79,79.79,0,0,1,631.78,370a83.14,83.14,0,0,1,3.6,41.92c-3.46,20.28-13.26,36.66-28.58,50-8.4,7.31-18.09,12.2-28.72,15.52s-21.26,3.91-32.18,3.87q-57.72-.19-115.44,0c-3.69,0-4.46-1.14-4.44-4.72.18-26.1.1-52.21.1-78.32Zm89,39.27c13.11,0,26.23.14,39.33-.08a41,41,0,0,0,11.2-1.84c19.48-5.95,32-27.83,25.58-49.1-4.58-15.26-21.36-28.6-37.43-27.91-9.63.41-19.29.07-28.94.07-17.32,0-34.64.07-52,0-3.51,0-4.9,1.09-4.67,4.73.28,4.31.06,8.65.07,13,0,4.87.15,5.08,4.95,5.09,11.13,0,22.26.06,33.4-.05,2.74,0,3.95.59,3.86,3.74-.25,8.9-.12,17.81-.11,26.71,0,5.16,0,5.16-5.3,5.16-10.88,0-21.77.1-32.66,0-3.27-.05-4.37,1.14-4.19,4.34a102.19,102.19,0,0,1,0,11.87c-.2,3.5,1.24,4.46,4.56,4.43C486.86,437.47,501,437.55,515.07,437.55Z"/><path class="cls-1" d="M342.85,359.49c-2.16-.25-3.21-.47-4.26-.47-11.64,0-23.27.08-34.91-.08-3.45,0-4.73,1.26-4.46,4.59.16,2-.17,4,.09,5.93.65,4.85-1.13,8.37-4.78,11.6-10,8.83-19.69,18-29.53,27a29.08,29.08,0,0,1-2.9,2c-.16-1.86-.35-3-.35-4.17,0-28.84.05-57.68-.07-86.52,0-3.37,1.12-4.16,4.27-4.15q72.23.12,144.45.07c1.09,0,2.18.14,3.49.23a20.77,20.77,0,0,1,.33,2.6c0,9,.12,18.07-.08,27.11a8.28,8.28,0,0,1-2.09,5.14c-16.25,16.64-32.63,33.14-49,49.69q-16.38,16.62-32.72,33.29c-.84.85-1.53,1.85-2.79,3.4a31.15,31.15,0,0,0,4.31.67c13.49,0,27,0,40.47.08,3.1,0,4.16-1.2,4-4.21-.18-3.58.18-7.19-.1-10.76-.24-3.07,1.05-5,3.2-7,10.38-9.48,20.65-19.1,31-28.64a41.67,41.67,0,0,1,3.51-2.48c.14,2.18.28,3.46.28,4.74,0,29.34,0,58.67,0,88,0,3-.72,4.16-3.89,4.16q-72.42-.09-144.82,0c-2.82,0-3.92-.91-3.88-3.89.15-10.64,0-21.29.17-31.93a8.77,8.77,0,0,1,2.17-5.5c19.88-20.32,39.92-40.48,59.87-60.73C330,373,336,366.63,342.85,359.49Z"/><path class="cls-1" d="M600.65,480.15c3.73-2.75,7.47-5.46,11.17-8.24a86.83,86.83,0,0,0,24.73-29.6c1.92-3.66,4.08-5.16,8.26-4.86,5.79.41,11.63.19,17.44.08,16-.3,27.37-8.31,34.5-22.17,10.88-21.13-.09-45.35-20.83-54a39.42,39.42,0,0,0-12.59-2.54,165.32,165.32,0,0,0-19.66,0c-3.58.19-5.26-1.27-6.76-4.22-7.34-14.38-18-25.83-31.27-35-1.52-1-3.12-2-4.67-3-.17-.11-.21-.41-.52-1.08a23.25,23.25,0,0,1,2.73-.37c21.4,0,42.82-.45,64.2.12,12.57.34,24.49,4.29,35.47,10.6a80.37,80.37,0,0,1,32.86,34.71c3.31,6.75,5.22,14.29,7,21.64a65.25,65.25,0,0,1,1.77,15.7c0,25-9.54,46.07-28.24,62.68-11.35,10.09-24.57,16.8-39.76,19a139.54,139.54,0,0,1-18,1.55c-18.06.2-36.13.07-54.19.06-1.17,0-2.33-.12-3.5-.18Z"/></g></svg>